<?xml version="1.0" encoding="UTF-8"?>
<svg width="365px" height="260px" viewBox="0 0 365 260" version="1.1" xmlns="http://www.w3.org/2000/svg" xmlns:xlink="http://www.w3.org/1999/xlink">
    <!-- Generator: Sketch 53.1 (72631) - https://sketchapp.com -->
    <title>Tablet</title>
    <desc>Created with Sketch.</desc>
    <g id="Tablet" stroke="none" stroke-width="1" fill="none" fill-rule="evenodd">
        <g id="Group">
            <rect id="Rectangle" x="0" y="0" width="365" height="260"></rect>
            <g id="Asset-3" transform="translate(26.577670, 40.322714)">
                <path d="M206.171845,25.9167413 C206.171845,26.0405509 206.171845,26.3766053 206.171845,26.4296665 C205.392233,26.8895304 203.93932,27.7738842 202.769903,28.3929318 C202.769903,28.2160611 202.628155,27.5970134 202.769903,27.5439522 C204.4,26.8010951 205.569417,26.2351087 206.313592,25.8813672 C206.313592,25.8813672 206.313592,25.8813672 206.313592,25.8813672 L206.171845,25.9167413 Z" id="Path" fill="#FFFFFC" fill-rule="nonzero"></path>
                <path d="M215.031068,22.8391903 C215.031068,22.9806869 215.031068,23.3167413 214.907039,23.3521155 C214.038835,23.6704828 212.479612,24.3072175 211.23932,24.7317073 C211.23932,24.7317073 211.23932,24.7317073 211.23932,24.7317073 C211.23932,24.7317073 211.23932,23.9181019 211.23932,23.8827277 C213.011165,23.4051767 214.216019,23.0337481 214.960194,22.8038162 C214.960194,22.8038162 214.960194,22.8038162 214.960194,22.8038162 L215.031068,22.8391903 Z" id="Path" fill="#FFFFFC" fill-rule="nonzero"></path>
                <path d="M224.262379,21.2119794 C224.262379,21.3357889 224.262379,21.6718434 224.067476,21.6895304 C223.163835,21.8664012 221.516019,22.2555168 220.222573,22.4677617 C220.222573,22.4677617 220.222573,22.4677617 220.133981,22.4677617 C220.045388,22.4677617 220.25801,21.6718434 220.36432,21.6541563 C222.136165,21.4595985 223.429612,21.2827277 224.209223,21.1766053 C224.209223,21.1766053 224.209223,21.1766053 224.209223,21.1766053 L224.262379,21.2119794 Z" id="Path" fill="#FFFFFC" fill-rule="nonzero"></path>
                <path d="M233.617718,21.0174216 C233.617718,21.1589182 233.458252,21.4772855 233.351942,21.4595985 C232.448301,21.4595985 230.729612,21.6364692 229.436165,21.6541563 C229.436165,21.6541563 229.436165,21.6541563 229.436165,21.6541563 C229.436165,21.6541563 229.666505,20.8936121 229.772816,20.8936121 C231.54466,20.8936121 232.873544,20.8936121 233.653155,20.9997345 C233.653155,20.9997345 233.653155,20.9997345 233.653155,20.9997345 L233.617718,21.0174216 Z" id="Path" fill="#FFFFFC" fill-rule="nonzero"></path>
                <path d="M242.937621,22.3085781 C242.937621,22.4323876 242.707282,22.7153808 242.600971,22.6976937 C241.69733,22.6092583 239.996359,22.4500747 238.702913,22.2732039 C238.702913,22.2732039 238.702913,22.2732039 238.702913,22.2732039 C238.702913,22.2732039 239.039563,21.5480338 239.163592,21.5657209 C240.935437,21.9194624 242.193447,22.1493944 242.973058,22.2732039 C242.973058,22.2732039 242.973058,22.2732039 242.973058,22.2732039 L242.937621,22.3085781 Z" id="Path" fill="#FFFFFC" fill-rule="nonzero"></path>
                <path d="M251.920874,25.0323876 C251.920874,25.1561971 251.61966,25.4038162 251.51335,25.368442 C250.627427,25.120823 248.979612,24.7140202 247.721602,24.3249046 C247.721602,24.3249046 247.721602,24.3249046 247.721602,24.2364692 C247.721602,24.1480338 248.182282,23.5820475 248.288592,23.6174216 C250.060437,24.2541563 251.212136,24.6786461 251.938592,24.9262651 C251.938592,24.9262651 251.938592,24.9262651 251.938592,24.9262651 L251.920874,25.0323876 Z" id="Path" fill="#FFFFFC" fill-rule="nonzero"></path>
                <path d="M260.354854,29.1357889 C260.354854,29.2595985 260.000485,29.4541563 259.911893,29.4010951 C259.061408,29.0296665 257.502184,28.3575577 256.368204,27.7738842 C256.368204,27.7738842 256.368204,27.7738842 256.368204,27.6854488 C256.368204,27.5970134 256.935194,27.1017753 257.023786,27.1548366 C258.600728,28.0568774 259.734709,28.675925 260.425728,29.0296665 C260.425728,29.0296665 260.425728,29.0296665 260.425728,29.1181019 L260.354854,29.1357889 Z" id="Path" fill="#FFFFFC" fill-rule="nonzero"></path>
                <path d="M268.04466,34.5126597 C267.956068,34.6187821 267.637136,34.7779658 267.548544,34.7072175 C266.78665,34.1942924 265.351456,33.3099386 264.270631,32.5493944 C264.270631,32.5493944 264.270631,32.5493944 264.270631,32.4432719 C264.270631,32.3371495 264.908495,31.9657209 264.997087,32.0364692 C266.396845,33.168442 267.442233,33.9466733 268.062379,34.4065372 C268.062379,34.4065372 268.062379,34.4065372 268.062379,34.4065372 L268.04466,34.5126597 Z" id="Path" fill="#FFFFFC" fill-rule="nonzero"></path>
                <path d="M274.77767,41.0038162 C274.689078,41.1099386 274.352427,41.2160611 274.281553,41.1276257 C273.590534,40.5085781 272.314806,39.3589182 271.375728,38.4922515 C271.517476,38.3507549 272.084466,38.120823 272.15534,38.2092583 C273.377913,39.5357889 274.281553,40.4732039 274.813107,41.0215032 C274.813107,41.0215032 274.813107,41.0215032 274.813107,41.0215032 L274.77767,41.0038162 Z" id="Path" fill="#FFFFFC" fill-rule="nonzero"></path>
                <path d="M280.429854,48.4854488 C280.323544,48.5738842 279.986893,48.6269454 279.916019,48.4854488 C279.331311,47.7779658 278.250485,46.4868094 277.453155,45.4255849 C277.453155,45.4255849 277.453155,45.4255849 277.453155,45.3371495 C277.453155,45.2487141 278.232767,45.0718434 278.285922,45.1602787 C279.278155,46.6636801 280.057767,47.7425917 280.465291,48.3793264 C280.465291,48.3793264 280.465291,48.3793264 280.465291,48.3793264 L280.429854,48.4854488 Z" id="Path" fill="#FFFFFC" fill-rule="nonzero"></path>
                <path d="M284.841748,56.7629998 C284.717718,56.7629998 284.36335,56.7629998 284.310194,56.7629998 C283.849515,55.9847685 282.981311,54.5167413 282.378883,53.3493944 C282.378883,53.3493944 282.378883,53.3493944 282.378883,53.260959 C282.378883,53.1725236 283.193932,53.1371495 283.229369,53.260959 L284.877184,56.798374 C284.877184,56.798374 284.877184,56.798374 284.877184,56.798374 L284.841748,56.7629998 Z" id="Path" fill="#FFFFFC" fill-rule="nonzero"></path>
                <path d="M287.871602,65.6242243 C287.747573,65.6242243 287.410922,65.6242243 287.375485,65.5004148 C287.038835,64.6337481 286.418689,63.0595985 285.993447,61.8215032 C285.993447,61.8215032 285.993447,61.8215032 285.993447,61.7330679 C285.993447,61.6446325 286.808495,61.7330679 286.826214,61.8391903 C287.304612,63.6078978 287.676699,64.8106189 287.88932,65.553476 C287.88932,65.553476 287.88932,65.553476 287.88932,65.553476 L287.871602,65.6242243 Z" id="Path" fill="#FFFFFC" fill-rule="nonzero"></path>
                <path d="M289.483981,74.7861291 C289.342233,74.7861291 289.023301,74.6800066 289.005583,74.5738842 C288.81068,73.6895304 288.438592,72.0269454 288.225971,70.7357889 C288.225971,70.7357889 288.225971,70.7357889 288.225971,70.7357889 C288.225971,70.7357889 289.023301,70.8419114 289.041019,70.9480338 C289.235922,72.7167413 289.413107,74.0255849 289.519417,74.7861291 C289.519417,74.7861291 289.519417,74.7861291 289.519417,74.7861291 L289.483981,74.7861291 Z" id="Path" fill="#FFFFFC" fill-rule="nonzero"></path>
                <path d="M289.625728,84.1956529 C289.501699,84.1956529 289.182767,84.0364692 289.182767,83.9126597 C289.182767,83.0106189 289.023301,81.3126597 289.005583,80.0038162 C289.005583,80.0038162 289.005583,80.0038162 289.005583,80.0038162 C289.005583,80.0038162 289.785194,80.2514352 289.785194,80.3575577 C289.696602,82.1262651 289.661165,83.4527958 289.643447,84.21334 C289.643447,84.21334 289.643447,84.21334 289.643447,84.21334 L289.625728,84.1956529 Z" id="Path" fill="#FFFFFC" fill-rule="nonzero"></path>
                <path d="M288.314563,93.4813672 C288.172816,93.4813672 287.88932,93.2514352 287.907039,93.1453128 C288.01335,92.2432719 288.155097,90.5453128 288.35,89.2541563 C288.35,89.2541563 288.35,89.2541563 288.35,89.2541563 C288.35,89.2541563 289.076456,89.6078978 289.058738,89.7140202 C288.68665,91.4827277 288.456311,92.7561971 288.314563,93.5167413 C288.314563,93.5167413 288.314563,93.5167413 288.314563,93.5167413 L288.314563,93.4813672 Z" id="Path" fill="#FFFFFC" fill-rule="nonzero"></path>
                <path d="M285.532767,102.431027 C285.408738,102.431027 285.178398,102.148034 285.196117,102.041911 C285.444175,101.157558 285.869417,99.5126597 286.259223,98.2568774 C286.259223,98.2568774 286.259223,98.2568774 286.347816,98.2568774 C286.436408,98.2568774 287.003398,98.7344284 286.967961,98.8405509 C286.330097,100.609258 285.887136,101.723544 285.639078,102.466401 C285.639078,102.466401 285.639078,102.466401 285.550485,102.466401 L285.532767,102.431027 Z" id="Path" fill="#FFFFFC" fill-rule="nonzero"></path>
                <path d="M281.38665,110.850075 C281.28034,110.850075 281.067718,110.496333 281.120874,110.390211 C281.51068,109.558918 282.183981,108.002456 282.768689,106.852796 C282.768689,106.852796 282.768689,106.852796 282.768689,106.852796 C282.768689,106.852796 283.371117,107.418782 283.317961,107.524905 C282.41432,109.081367 281.794175,110.21334 281.422087,110.903136 C281.422087,110.903136 281.422087,110.903136 281.333495,110.903136 L281.38665,110.850075 Z" id="Path" fill="#FFFFFC" fill-rule="nonzero"></path>
                <path d="M269.426699,125.194292 C269.338107,125.194292 269.231796,124.769803 269.320388,124.699054 C269.940534,124.009258 271.092233,122.735789 271.978155,121.798374 C271.978155,121.798374 271.978155,121.798374 272.066748,121.798374 C272.15534,121.798374 272.438835,122.523544 272.367961,122.594292 C271.021359,123.797013 270.1,124.699054 269.53301,125.229667 C269.53301,125.229667 269.53301,125.229667 269.444417,125.229667 L269.426699,125.194292 Z" id="Path" fill="#FFFFFC" fill-rule="nonzero"></path>
                <path d="M261.914078,130.801095 C261.914078,130.694973 261.790049,130.358918 261.914078,130.28817 C262.622816,129.722184 263.933981,128.625585 264.997087,127.847354 C264.997087,127.847354 264.997087,127.847354 265.08568,127.847354 C265.174272,127.847354 265.351456,128.607898 265.262864,128.678646 C263.739078,129.669122 262.675971,130.447354 262.038107,130.836469 C262.038107,130.836469 262.038107,130.836469 262.038107,130.836469 L261.914078,130.801095 Z" id="Path" fill="#FFFFFC" fill-rule="nonzero"></path>
                <path d="M253.621845,135.169803 C253.621845,135.045993 253.621845,134.692252 253.621845,134.656877 C254.419175,134.197013 255.889806,133.330347 257.059223,132.728986 C257.059223,132.728986 257.059223,132.728986 257.059223,132.728986 C257.059223,132.728986 257.200971,133.507218 257.059223,133.560279 C255.393689,134.303136 254.24199,134.851435 253.515534,135.18749 C253.515534,135.18749 253.515534,135.18749 253.515534,135.18749 L253.621845,135.169803 Z" id="Path" fill="#FFFFFC" fill-rule="nonzero"></path>
                <path d="M244.727184,138.176605 C244.727184,138.035109 244.727184,137.699054 244.851214,137.66368 C245.701699,137.345313 247.278641,136.726265 248.53665,136.301775 C248.53665,136.301775 248.53665,136.301775 248.53665,136.301775 C248.53665,136.301775 248.53665,137.097694 248.448058,137.133068 C246.676214,137.610619 245.471359,137.96436 244.709466,138.194292 C244.709466,138.194292 244.709466,138.194292 244.709466,138.194292 L244.727184,138.176605 Z" id="Path" fill="#FFFFFC" fill-rule="nonzero"></path>
                <path d="M235.460437,139.733068 C235.460437,139.591571 235.566748,139.273204 235.673058,139.255517 C236.576699,139.060959 238.242233,138.707218 239.53568,138.494973 C239.53568,138.494973 239.53568,138.494973 239.53568,138.494973 C239.53568,138.494973 239.41165,139.290891 239.30534,139.308578 C237.533495,139.503136 236.22233,139.66232 235.460437,139.768442 C235.460437,139.768442 235.460437,139.768442 235.460437,139.768442 L235.460437,139.733068 Z" id="Path" fill="#FFFFFC" fill-rule="nonzero"></path>
                <path d="M226.087379,139.83919 C226.087379,139.697694 226.246845,139.397013 226.370874,139.397013 C227.274515,139.397013 228.975485,139.23783 230.304369,139.23783 C230.304369,139.23783 230.304369,139.23783 230.304369,139.23783 C230.304369,139.23783 230.056311,139.998374 229.95,139.998374 C228.178155,139.998374 226.849272,139.874564 226.06966,139.856877 C226.06966,139.856877 226.06966,139.856877 226.06966,139.856877 L226.087379,139.83919 Z" id="Path" fill="#FFFFFC" fill-rule="nonzero"></path>
                <path d="M216.802913,138.459598 C216.802913,138.318102 217.033252,138.052796 217.157282,138.070483 C218.060922,138.176605 219.744175,138.335789 221.05534,138.530347 C221.05534,138.530347 221.05534,138.530347 221.05534,138.530347 C221.05534,138.530347 220.700971,139.255517 220.59466,139.23783 L216.785194,138.477286 C216.785194,138.477286 216.785194,138.477286 216.785194,138.477286 L216.802913,138.459598 Z" id="Path" fill="#FFFFFC" fill-rule="nonzero"></path>
                <path d="M207.855097,135.682728 C207.855097,135.558918 208.156311,135.311299 208.262621,135.346673 C209.130825,135.594292 210.796359,136.018782 212.03665,136.425585 C212.03665,136.425585 212.03665,136.425585 212.03665,136.425585 C212.03665,136.425585 211.575971,137.097694 211.46966,137.044632 C209.697816,136.407898 208.563835,135.965721 207.837379,135.718102 C207.837379,135.718102 207.837379,135.718102 207.837379,135.718102 L207.855097,135.682728 Z" id="Path" fill="#FFFFFC" fill-rule="nonzero"></path>
                <path d="M199.438835,131.508578 C199.438835,131.384769 199.793204,131.190211 199.899515,131.243272 C200.732282,131.614701 202.291505,132.304496 203.443204,132.88817 C203.336893,133.065041 202.858495,133.471843 202.769903,133.418782 C201.21068,132.516741 200.076699,131.897694 199.38568,131.508578 C199.38568,131.508578 199.38568,131.508578 199.38568,131.508578 L199.438835,131.508578 Z" id="Path" fill="#FFFFFC" fill-rule="nonzero"></path>
                <path d="M191.802184,126.078646 C191.802184,125.972524 192.209709,125.831027 192.298301,125.901775 C193.060194,126.397013 194.495388,127.299054 195.558495,128.077286 C195.558495,128.077286 195.558495,128.077286 195.558495,128.077286 C195.558495,128.077286 194.902913,128.554837 194.81432,128.501775 C193.414563,127.352115 192.386893,126.573884 191.766748,126.096333 C191.766748,126.096333 191.766748,126.096333 191.766748,126.096333 L191.802184,126.078646 Z" id="Path" fill="#FFFFFC" fill-rule="nonzero"></path>
                <path d="M185.12233,119.499054 C185.12233,119.499054 185.547573,119.322184 185.618447,119.392932 C186.291748,120.011979 187.585194,121.161639 188.506553,122.06368 C188.506553,122.06368 188.506553,122.06368 188.506553,122.06368 C188.506553,122.06368 187.780097,122.435109 187.709223,122.36436 C186.504369,121.020143 185.618447,120.082728 185.086893,119.516741 C185.086893,119.516741 185.086893,119.516741 185.086893,119.516741 L185.12233,119.499054 Z" id="Path" fill="#FFFFFC" fill-rule="nonzero"></path>
                <path d="M179.541019,111.928986 C179.541019,111.928986 179.983981,111.805177 180.054854,111.928986 C180.621845,112.636469 181.70267,113.945313 182.482282,115.006537 C182.482282,115.006537 182.482282,115.006537 182.482282,115.006537 C182.482282,115.006537 181.70267,115.271843 181.649515,115.183408 C180.657282,113.66232 179.87767,112.601095 179.505583,111.96436 C179.505583,111.96436 179.505583,111.96436 179.505583,111.96436 L179.541019,111.928986 Z" id="Path" fill="#FFFFFC" fill-rule="nonzero"></path>
                <path d="M175.2,103.669122 C175.324029,103.669122 175.66068,103.669122 175.713835,103.669122 C176.156796,104.465041 177.025,105.933068 177.627427,107.100415 C177.627427,107.100415 177.627427,107.100415 177.627427,107.18885 C177.627427,107.277286 176.830097,107.31266 176.776942,107.18885 C176.050485,105.561639 175.501214,104.376605 175.182282,103.651435 C175.182282,103.651435 175.182282,103.651435 175.182282,103.651435 L175.2,103.669122 Z" id="Path" fill="#FFFFFC" fill-rule="nonzero"></path>
                <path d="M172.241019,94.7902107 C172.365049,94.7902107 172.701699,94.7902107 172.737136,94.9317073 C173.056068,95.7806869 173.676214,97.3548366 174.083738,98.6106189 C174.083738,98.6106189 174.083738,98.6106189 174.083738,98.6990543 C174.083738,98.7874896 173.286408,98.6990543 173.250971,98.5929318 C172.790291,96.8242243 172.418204,95.6038162 172.205583,94.860959 C172.205583,94.860959 172.205583,94.860959 172.205583,94.860959 L172.241019,94.7902107 Z" id="Path" fill="#FFFFFC" fill-rule="nonzero"></path>
                <path d="M170.699515,85.5398706 C170.841262,85.5398706 171.160194,85.645993 171.177913,85.7521155 C171.355097,86.6541563 171.727184,88.3167413 171.922087,89.6078978 C171.922087,89.6078978 171.922087,89.6078978 171.922087,89.6078978 C171.922087,89.6078978 171.124757,89.4840883 171.107039,89.3779658 C170.929854,87.6092583 170.770388,86.3004148 170.664078,85.5398706 C170.664078,85.5398706 170.664078,85.5398706 170.664078,85.5398706 L170.699515,85.5398706 Z" id="Path" fill="#FFFFFC" fill-rule="nonzero"></path>
                <path d="M170.628641,76.183408 C170.770388,76.183408 171.071602,76.3602787 171.071602,76.4664012 C171.071602,77.3861291 171.21335,79.0664012 171.21335,80.3752447 C171.21335,80.3752447 171.21335,80.3752447 171.21335,80.3752447 C171.21335,80.3752447 170.433738,80.1276257 170.451456,80.0215032 C170.557767,78.2527958 170.593204,76.9262651 170.610922,76.1480338 C170.610922,76.1480338 170.610922,76.1480338 170.610922,76.1480338 L170.628641,76.183408 Z" id="Path" fill="#FFFFFC" fill-rule="nonzero"></path>
                <path d="M172.028398,66.9153808 C172.152427,66.9153808 172.435922,67.1629998 172.418204,67.2691223 C172.311893,68.1711631 172.152427,69.8691223 171.939806,71.1602787 C171.939806,71.1602787 171.939806,71.1602787 171.939806,71.1602787 C171.939806,71.1602787 171.21335,70.8065372 171.231068,70.6827277 C171.620874,68.9140202 171.868932,67.6582379 172.01068,66.8976937 C172.01068,66.8976937 172.01068,66.8976937 172.01068,66.8976937 L172.028398,66.9153808 Z" id="Path" fill="#FFFFFC" fill-rule="nonzero"></path>
                <path d="M174.881068,57.983408 C175.005097,57.983408 175.235437,58.2840883 175.2,58.3902107 C174.951942,59.2745645 174.526699,60.9194624 174.119175,62.1575577 C174.119175,62.1575577 174.119175,62.1575577 174.119175,62.1575577 C174.119175,62.1575577 173.463592,61.6800066 173.499029,61.5738842 C174.154612,59.8051767 174.597573,58.690891 174.86335,57.9480338 C174.86335,57.9480338 174.86335,57.9480338 174.86335,57.9480338 L174.881068,57.983408 Z" id="Path" fill="#FFFFFC" fill-rule="nonzero"></path>
                <path d="M179.098058,49.6174216 C179.204369,49.6174216 179.399272,49.9711631 179.346117,50.0772855 C178.974029,50.890891 178.28301,52.4650407 177.680583,53.6147005 C177.680583,53.6147005 177.680583,53.6147005 177.680583,53.6147005 C177.680583,53.6147005 177.113592,53.0487141 177.166748,52.9425917 C178.070388,51.3861291 178.708252,50.2718434 179.08034,49.5820475 C179.08034,49.5820475 179.08034,49.5820475 179.08034,49.5820475 L179.098058,49.6174216 Z" id="Path" fill="#FFFFFC" fill-rule="nonzero"></path>
                <path d="M184.573058,42.0119794 C184.679369,42.1004148 184.821117,42.4187821 184.767961,42.5072175 C184.254126,43.2677617 183.332767,44.7004148 182.553155,45.7616393 C182.553155,45.7616393 182.553155,45.7616393 182.553155,45.7616393 C182.553155,45.7616393 182.074757,45.1072175 182.145631,45.0187821 C183.279612,43.6391903 184.09466,42.61334 184.573058,41.9942924 C184.573058,41.9942924 184.573058,41.9942924 184.573058,41.9942924 L184.573058,42.0119794 Z" id="Path" fill="#FFFFFC" fill-rule="nonzero"></path>
                <path d="M191.16432,35.3616393 C191.270631,35.4677617 191.359223,35.8038162 191.28835,35.8745645 C190.668204,36.5466733 189.516505,37.8024556 188.595146,38.7398706 C188.595146,38.7398706 188.595146,38.7398706 188.595146,38.7398706 C188.595146,38.7398706 188.223058,38.0147005 188.31165,37.9439522 C189.658252,36.7412311 190.59733,35.8568774 191.16432,35.3262651 C191.16432,35.3262651 191.16432,35.3262651 191.16432,35.3262651 L191.16432,35.3616393 Z" id="Path" fill="#FFFFFC" fill-rule="nonzero"></path>
                <path d="M198.730097,29.8255849 C198.730097,29.9317073 198.854126,30.2854488 198.730097,30.33851 C198.003641,30.9044964 196.692476,31.983408 195.629369,32.7439522 C195.629369,32.7439522 195.629369,32.7439522 195.540777,32.7439522 C195.452184,32.7439522 195.292718,31.983408 195.381311,31.9303468 C196.887379,30.9575577 197.968204,30.1616393 198.606068,29.7902107 C198.606068,29.7902107 198.606068,29.7902107 198.606068,29.7902107 L198.730097,29.8255849 Z" id="Path" fill="#FFFFFC" fill-rule="nonzero"></path>
                <path d="M42.8963592,29.7371495 C42.8963592,29.8786461 42.8963592,30.2854488 42.8963592,30.33851 C41.9572816,30.8868094 40.2563107,31.9126597 38.8919903,32.6378298 C38.8919903,32.6378298 38.8919903,32.6378298 38.7856796,32.6378298 C38.6793689,32.6378298 38.6262136,31.7004148 38.7856796,31.6473536 C40.7169903,30.7629998 42.0635922,30.1085781 42.8963592,29.7017753 C42.8963592,29.7017753 42.8963592,29.7017753 42.8963592,29.7017753 L42.8963592,29.7371495 Z" id="Path" fill="#FFFFFC" fill-rule="nonzero"></path>
                <path d="M53.3148058,26.1289862 C53.3148058,26.2704828 53.3148058,26.6772855 53.1730583,26.7126597 C52.1631068,27.1017753 50.3026699,27.8446325 48.8497573,28.3398706 C48.8497573,28.3398706 48.761165,28.3398706 48.7434466,28.3398706 C48.7257282,28.3398706 48.7434466,27.3847685 48.8674757,27.3493944 C50.9050971,26.783408 52.411165,26.3412311 53.2262136,26.075925 C53.2262136,26.075925 53.2262136,26.075925 53.3148058,26.075925 L53.3148058,26.1289862 Z" id="Path" fill="#FFFFFC" fill-rule="nonzero"></path>
                <path d="M64.1584951,24.2010951 C64.1584951,24.3602787 64.0699029,24.7493944 63.9281553,24.7493944 C62.882767,24.9793264 60.9337379,25.4391903 59.4099515,25.6868094 C59.4099515,25.6868094 59.4099515,25.6868094 59.3213592,25.6868094 C59.232767,25.6868094 59.4631068,24.7493944 59.5871359,24.7140202 C61.6956311,24.4840883 63.1308252,24.2718434 64.1053398,24.1480338 C64.1053398,24.1480338 64.1053398,24.1480338 64.1053398,24.1480338 L64.1584951,24.2010951 Z" id="Path" fill="#FFFFFC" fill-rule="nonzero"></path>
                <path d="M75.1793689,23.9888502 C75.1793689,24.1480338 74.984466,24.5017753 74.8427184,24.5017753 C73.7796117,24.5017753 71.7774272,24.6963332 70.2359223,24.7317073 C70.2359223,24.7317073 70.2359223,24.7317073 70.2359223,24.7317073 C70.2359223,24.7317073 70.5194175,23.8296665 70.6434466,23.8296665 C72.7519417,23.8296665 74.2757282,23.953476 75.1970874,23.9711631 C75.1970874,23.9711631 75.1970874,23.9711631 75.1970874,23.9711631 L75.1793689,23.9888502 Z" id="Path" fill="#FFFFFC" fill-rule="nonzero"></path>
                <path d="M86.1293689,25.4922515 C86.1293689,25.6337481 85.8458738,25.9698026 85.7218447,25.9521155 C84.6587379,25.828306 82.6565534,25.6691223 81.132767,25.4391903 C81.132767,25.4391903 81.132767,25.4391903 81.132767,25.4391903 C81.132767,25.4391903 81.5580097,24.5902107 81.6820388,24.6078978 C83.7550971,25.0323876 85.2257282,25.3153808 86.1648058,25.4568774 C86.1648058,25.4568774 86.1648058,25.4568774 86.1648058,25.4568774 L86.1293689,25.4922515 Z" id="Path" fill="#FFFFFC" fill-rule="nonzero"></path>
                <path d="M96.6718447,28.6936121 C96.6718447,28.8351087 96.3174757,29.1181019 96.1934466,29.0827277 C95.1657767,28.7997345 93.2167476,28.3221835 91.7461165,27.8623196 C91.7461165,27.8623196 91.7461165,27.8623196 91.7461165,27.7561971 C91.7461165,27.6500747 92.2776699,26.9779658 92.401699,27.031027 C94.386165,27.7738842 95.8213592,28.2691223 96.6895631,28.5698026 C96.6895631,28.5698026 96.6895631,28.5698026 96.6895631,28.6582379 L96.6718447,28.6936121 Z" id="Path" fill="#FFFFFC" fill-rule="nonzero"></path>
                <path d="M106.576456,33.5044964 C106.576456,33.645993 106.168932,33.8936121 106.062621,33.8228638 C105.070388,33.3806869 103.22767,32.6024556 101.845631,31.9303468 C101.845631,31.9303468 101.845631,31.9303468 101.845631,31.8242243 C101.845631,31.7181019 102.501214,31.1344284 102.625243,31.2051767 C104.397087,32.2487141 105.796845,32.9738842 106.594175,33.398374 C106.594175,33.398374 106.594175,33.398374 106.594175,33.398374 L106.576456,33.5044964 Z" id="Path" fill="#FFFFFC" fill-rule="nonzero"></path>
                <path d="M115.612864,39.8364692 C115.612864,39.9602787 115.152184,40.1371495 115.045874,40.0664012 C114.142233,39.4827277 112.458981,38.4215032 111.200971,37.5194624 C111.200971,37.5194624 111.200971,37.5194624 111.200971,37.41334 C111.200971,37.3072175 111.962864,36.8473536 112.069175,36.9181019 C113.71699,38.2446325 114.921845,39.1643604 115.612864,39.7126597 C115.612864,39.7126597 115.612864,39.7126597 115.612864,39.8187821 L115.612864,39.8364692 Z" id="Path" fill="#FFFFFC" fill-rule="nonzero"></path>
                <path d="M123.550728,47.4772855 C123.426699,47.583408 123.036893,47.7072175 122.948301,47.6010951 C122.150971,46.8936121 120.644903,45.5847685 119.528641,44.505857 C119.50965,44.4730226 119.50965,44.4325689 119.528641,44.3997345 C119.705825,44.2405509 120.379126,43.9575577 120.467718,44.045993 C121.885194,45.6201427 122.948301,46.7167413 123.586165,47.3711631 C123.586165,47.3711631 123.586165,47.3711631 123.586165,47.4595985 L123.550728,47.4772855 Z" id="Path" fill="#FFFFFC" fill-rule="nonzero"></path>
                <path d="M130.195146,56.2677617 C130.053398,56.2677617 129.645874,56.4092583 129.575,56.2677617 C128.901699,55.4364692 127.625971,53.9153808 126.686893,52.7303468 C126.686893,52.7303468 126.686893,52.7303468 126.686893,52.6242243 C126.686893,52.5181019 127.608252,52.305857 127.661408,52.4119794 C128.830825,54.1806869 129.699029,55.4364692 130.230583,56.1793264 C130.230583,56.1793264 130.230583,56.1793264 130.230583,56.2677617 L130.195146,56.2677617 Z" id="Path" fill="#FFFFFC" fill-rule="nonzero"></path>
                <path d="M135.351214,65.9425917 C135.227184,65.9425917 134.801942,65.9425917 134.748786,65.9425917 C134.217233,65.0228638 133.189563,63.3072175 132.463107,61.9453128 C132.675728,61.8391903 133.402184,61.7861291 133.45534,61.9453128 C134.341262,63.890891 134.996845,65.2527958 135.404369,66.0840883 C135.404369,66.0840883 135.404369,66.0840883 135.404369,66.0840883 L135.351214,65.9425917 Z" id="Path" fill="#FFFFFC" fill-rule="nonzero"></path>
                <path d="M138.93034,76.3956529 C138.788592,76.3956529 138.381068,76.3956529 138.345631,76.2541563 C137.955825,75.245993 137.21165,73.3888502 136.715534,71.920823 C136.715534,71.920823 136.715534,71.920823 136.715534,71.8323876 C136.715534,71.7439522 137.67233,71.8323876 137.707767,71.9561971 C138.274757,73.9902107 138.7,75.4936121 138.965777,76.3249046 C138.965777,76.3249046 138.965777,76.3249046 138.965777,76.3249046 L138.93034,76.3956529 Z" id="Path" fill="#FFFFFC" fill-rule="nonzero"></path>
                <path d="M140.826214,87.2555168 C140.666748,87.2555168 140.276942,87.1317073 140.259223,87.0078978 C140.046602,85.9643604 139.603641,84.0187821 139.337864,82.4800066 C139.568204,82.4800066 140.276942,82.6038162 140.312379,82.7453128 C140.525,84.8500747 140.719903,86.2827277 140.843932,87.2555168 C140.843932,87.2555168 140.843932,87.2555168 140.843932,87.2555168 L140.826214,87.2555168 Z" id="Path" fill="#FFFFFC" fill-rule="nonzero"></path>
                <path d="M140.98568,98.2391903 C140.826214,98.2391903 140.471845,98.0446325 140.471845,97.9031359 C140.471845,96.8419114 140.276942,94.8432719 140.259223,93.3044964 C140.489563,93.3044964 141.162864,93.5874896 141.162864,93.7289862 C141.056553,95.8337481 141.021117,97.3548366 141.003398,98.2745645 C141.003398,98.2745645 141.003398,98.2745645 141.003398,98.2745645 L140.98568,98.2391903 Z" id="Path" fill="#FFFFFC" fill-rule="nonzero"></path>
                <path d="M139.444175,109.152115 C139.284709,109.152115 138.948058,108.886809 138.983495,108.745313 C139.089806,107.684088 139.26699,105.703136 139.49733,104.16436 C139.49733,104.16436 139.49733,104.16436 139.49733,104.16436 C139.49733,104.16436 140.347816,104.58885 140.330097,104.71266 C139.887136,106.782047 139.621359,108.250075 139.461893,109.169803 C139.461893,109.169803 139.461893,109.169803 139.373301,109.169803 L139.444175,109.152115 Z" id="Path" fill="#FFFFFC" fill-rule="nonzero"></path>
                <path d="M136.183981,119.675925 C136.042233,119.675925 135.758738,119.339871 135.794175,119.198374 C136.07767,118.172524 136.573786,116.244632 137.034466,114.758918 C137.034466,114.758918 137.034466,114.758918 137.034466,114.758918 C137.034466,114.758918 137.814078,115.307218 137.778641,115.431027 C137.016748,117.411979 136.520631,118.844632 136.201699,119.693612 C136.201699,119.693612 136.201699,119.693612 136.201699,119.693612 L136.183981,119.675925 Z" id="Path" fill="#FFFFFC" fill-rule="nonzero"></path>
                <path d="M131.311408,129.616061 C131.16966,129.616061 130.93932,129.209258 130.992476,129.103136 C131.453155,128.11266 132.232767,126.273204 132.923786,124.893612 C132.923786,124.893612 132.923786,124.893612 133.030097,124.893612 C133.136408,124.893612 133.703398,125.548034 133.650243,125.671843 C132.587136,127.440551 131.878398,128.83783 131.417718,129.651435 C131.417718,129.651435 131.417718,129.651435 131.417718,129.651435 L131.311408,129.616061 Z" id="Path" fill="#FFFFFC" fill-rule="nonzero"></path>
                <path d="M124.932767,138.548034 C124.808738,138.441911 124.649272,138.08817 124.720146,137.96436 C125.304854,137.080007 126.38568,135.382047 127.271602,134.143952 C127.271602,134.143952 127.271602,134.143952 127.377913,134.143952 C127.484223,134.143952 127.944903,134.922184 127.874029,135.028306 C126.545146,136.673204 125.623786,137.875925 125.056796,138.565721 C125.056796,138.565721 125.056796,138.565721 125.056796,138.565721 L124.932767,138.548034 Z" id="Path" fill="#FFFFFC" fill-rule="nonzero"></path>
                <path d="M117.26068,146.418782 C117.154369,146.31266 117.03034,145.905857 117.118932,145.817422 C117.845388,145.021503 119.156553,143.535789 120.237379,142.421503 L120.361408,142.421503 C120.520874,142.598374 120.78665,143.270483 120.698058,143.358918 C119.121117,144.791571 118.022573,145.835109 117.36699,146.454156 C117.36699,146.454156 117.36699,146.454156 117.26068,146.454156 L117.26068,146.418782 Z" id="Path" fill="#FFFFFC" fill-rule="nonzero"></path>
                <path d="M108.419175,153.016061 C108.419175,152.874564 108.277427,152.485449 108.419175,152.397013 C109.251942,151.724905 110.793447,150.451435 111.962864,149.531707 C112.104612,149.726265 112.264078,150.451435 112.157767,150.522184 C110.385922,151.671843 109.127913,152.53851 108.383738,153.051435 C108.383738,153.051435 108.383738,153.051435 108.383738,153.051435 L108.419175,153.016061 Z" id="Path" fill="#FFFFFC" fill-rule="nonzero"></path>
                <path d="M98.6740291,158.127626 C98.6740291,157.986129 98.6740291,157.579326 98.6740291,157.526265 C99.5953883,156.995653 101.314078,155.969803 102.696117,155.26232 C102.784709,155.474564 102.855583,156.199735 102.696117,156.270483 C100.764806,157.119462 99.4004854,157.773884 98.55,158.163 C98.55,158.163 98.55,158.163 98.55,158.163 L98.6740291,158.127626 Z" id="Path" fill="#FFFFFC" fill-rule="nonzero"></path>
                <path d="M88.2201456,161.665041 C88.2201456,161.523544 88.2201456,161.116741 88.3618932,161.081367 C89.3718447,160.692252 91.2322816,159.949394 92.7029126,159.471843 C92.7029126,159.471843 92.7029126,159.471843 92.7029126,159.471843 C92.7029126,159.471843 92.7029126,160.426945 92.5788835,160.46232 C90.5412621,161.010619 89.0351942,161.435109 88.2024272,161.700415 C88.2024272,161.700415 88.2024272,161.700415 88.2024272,161.700415 L88.2201456,161.665041 Z" id="Path" fill="#FFFFFC" fill-rule="nonzero"></path>
                <path d="M77.3410194,163.504496 C77.3410194,163.345313 77.4473301,162.956197 77.5713592,162.93851 C78.634466,162.726265 80.5834951,162.284088 82.1072816,162.036469 C82.1072816,162.266401 81.965534,162.973884 81.8415049,162.991571 L77.323301,163.522184 C77.323301,163.522184 77.323301,163.522184 77.323301,163.522184 L77.3410194,163.504496 Z" id="Path" fill="#FFFFFC" fill-rule="nonzero"></path>
                <path d="M66.3024272,163.628306 C66.3024272,163.469122 66.5150485,163.097694 66.6390777,163.115381 C67.7199029,163.115381 69.7043689,162.920823 71.2635922,162.920823 C71.2635922,162.920823 71.2635922,162.920823 71.2635922,162.920823 C71.2635922,162.920823 70.9800971,163.822864 70.8383495,163.822864 C68.7298544,163.699054 67.206068,163.66368 66.3024272,163.645993 C66.3024272,163.645993 66.3024272,163.645993 66.3024272,163.557558 L66.3024272,163.628306 Z" id="Path" fill="#FFFFFC" fill-rule="nonzero"></path>
                <path d="M55.4055825,162.018782 C55.4055825,161.877286 55.6713592,161.558918 55.8131068,161.576605 C56.8762136,161.682728 58.8606796,161.877286 60.384466,162.107218 C60.384466,162.107218 60.4730583,162.107218 60.384466,162.107218 C60.2958738,162.107218 59.9592233,162.973884 59.8351942,162.93851 C57.7621359,162.496333 56.2915049,162.21334 55.3701456,162.054156 C55.3701456,162.054156 55.3701456,162.054156 55.3701456,162.054156 L55.4055825,162.018782 Z" id="Path" fill="#FFFFFC" fill-rule="nonzero"></path>
                <path d="M44.8808252,158.746673 C44.8808252,158.58749 45.2351942,158.322184 45.3592233,158.357558 C46.3868932,158.640551 48.3359223,159.135789 49.788835,159.61334 C49.788835,159.61334 49.788835,159.61334 49.788835,159.701775 C49.788835,159.790211 49.2395631,160.480007 49.115534,160.444632 C47.131068,159.684088 45.7135922,159.171163 44.8453883,158.852796 C44.8453883,158.852796 44.8453883,158.852796 44.8453883,158.852796 L44.8808252,158.746673 Z" id="Path" fill="#FFFFFC" fill-rule="nonzero"></path>
                <path d="M34.993932,153.829667 C35.0825243,153.68817 35.4191748,153.458238 35.5254854,153.528986 C36.5177184,153.971163 38.3427184,154.767081 39.7247573,155.456877 C39.7247573,155.456877 39.7247573,155.456877 39.7247573,155.563 C39.7247573,155.669122 39.0514563,156.252796 38.9274272,156.182047 C37.1555825,155.120823 35.7735437,154.41334 34.9584951,153.953476 C34.9584951,153.953476 34.9584951,153.953476 34.9584951,153.847354 L34.993932,153.829667 Z" id="Path" fill="#FFFFFC" fill-rule="nonzero"></path>
                <path d="M26.0283981,147.444632 C26.1169903,147.320823 26.4890777,147.143952 26.5953883,147.214701 C27.4813107,147.816061 29.1822816,148.877286 30.4402913,149.779326 C30.4669068,149.81632 30.4669068,149.866142 30.4402913,149.903136 C30.2808252,150.080007 29.6606796,150.469122 29.5543689,150.380687 C27.9065534,149.054156 26.701699,148.116741 26.0106796,147.550755 C26.0106796,147.550755 26.0106796,147.550755 26.0106796,147.550755 L26.0283981,147.444632 Z" id="Path" fill="#FFFFFC" fill-rule="nonzero"></path>
                <path d="M18.1614078,139.733068 C18.2677184,139.626945 18.6752427,139.503136 18.763835,139.609258 C19.5434466,140.334428 21.0495146,141.643272 22.1480583,142.739871 C21.9708738,142.899054 21.2975728,143.182047 21.2089806,143.075925 C19.7915049,141.501775 18.763835,140.405177 18.1259709,139.733068 C18.1259709,139.733068 18.1259709,139.733068 18.1259709,139.733068 L18.1614078,139.733068 Z" id="Path" fill="#FFFFFC" fill-rule="nonzero"></path>
                <path d="M11.5878641,130.88953 C11.7296117,130.88953 12.1371359,130.730347 12.1902913,130.88953 C12.8813107,131.685449 14.1747573,133.153476 15.0606796,134.480007 C14.8657767,134.603816 14.1570388,134.780687 14.0684466,134.674564 C12.934466,132.905857 12.0662621,131.632388 11.5524272,130.88953 C11.5524272,130.88953 11.5524272,130.88953 11.5524272,130.88953 L11.5878641,130.88953 Z" id="Path" fill="#FFFFFC" fill-rule="nonzero"></path>
                <path d="M6.5026699,121.126265 C6.64441748,121.126265 7.05194175,121.126265 7.10509709,121.126265 C7.63665049,122.06368 8.64660194,123.779326 9.35533981,125.158918 C9.35533981,125.158918 9.35533981,125.158918 9.35533981,125.265041 C9.35533981,125.371163 8.41626214,125.406537 8.3631068,125.265041 C7.49490291,123.337149 6.85703883,121.957558 6.46723301,121.126265 C6.46723301,121.126265 6.46723301,121.126265 6.46723301,121.126265 L6.5026699,121.126265 Z" id="Path" fill="#FFFFFC" fill-rule="nonzero"></path>
                <path d="M3.01213592,110.690891 C3.17160194,110.690891 3.56140777,110.690891 3.59684466,110.832388 C3.98665049,111.840551 4.7131068,113.697694 5.19150485,115.165721 C4.96116505,115.165721 4.23470874,115.165721 4.19927184,115.041911 C3.65,112.990211 3.22475728,111.504496 2.97669903,110.655517 C2.97669903,110.655517 2.97669903,110.655517 2.97669903,110.655517 L3.01213592,110.690891 Z" id="Path" fill="#FFFFFC" fill-rule="nonzero"></path>
                <path d="M1.22257282,99.81334 C1.36432039,99.81334 1.75412621,99.9371495 1.77184466,100.060959 C1.98446602,101.122184 2.42742718,103.067762 2.65776699,104.58885 C2.65776699,104.58885 2.65776699,104.58885 2.65776699,104.58885 C2.65776699,104.58885 1.71868932,104.447354 1.70097087,104.305857 C1.41747573,102.28953 1.24029126,100.786129 1.11626214,99.8840883 C1.11626214,99.8840883 1.11626214,99.8840883 1.11626214,99.8840883 L1.22257282,99.81334 Z" id="Path" fill="#FFFFFC" fill-rule="nonzero"></path>
                <path d="M1.13398058,88.8119794 C1.2934466,88.8119794 1.66553398,89.0242243 1.64781553,89.1480338 C1.64781553,90.2269454 1.825,92.2078978 1.825,93.7466733 C1.59466019,93.7466733 0.921359223,93.445993 0.921359223,93.3221835 C1.04538835,91.1997345 1.09854369,89.6963332 1.11626214,88.7766053 C1.11626214,88.7766053 1.11626214,88.7766053 1.20485437,88.7766053 L1.13398058,88.8119794 Z" id="Path" fill="#FFFFFC" fill-rule="nonzero"></path>
                <path d="M2.78179612,77.9344284 C2.92354369,77.9344284 3.26019417,78.2174216 3.22475728,78.3412311 C3.1184466,79.4024556 2.90582524,81.383408 2.67548544,82.9044964 C2.67548544,82.9044964 2.67548544,82.9044964 2.5868932,82.9044964 C2.49830097,82.9044964 1.77184466,82.5507549 1.77184466,82.4269454 C2.23252427,80.3398706 2.51601942,78.8895304 2.67548544,77.9521155 C2.67548544,77.9521155 2.67548544,77.9521155 2.76407767,77.9521155 L2.78179612,77.9344284 Z" id="Path" fill="#FFFFFC" fill-rule="nonzero"></path>
                <path d="M6.11286408,67.428306 C6.2723301,67.428306 6.55582524,67.7820475 6.5026699,67.905857 C6.21917476,68.9493944 5.70533981,70.8772855 5.22694175,72.3453128 C5.01432039,72.3453128 4.46504854,71.7970134 4.50048544,71.6732039 C5.28009709,69.6922515 5.79393204,68.2595985 6.11286408,67.4106189 C6.11286408,67.4106189 6.11286408,67.4106189 6.11286408,67.4106189 L6.11286408,67.428306 Z" id="Path" fill="#FFFFFC" fill-rule="nonzero"></path>
                <path d="M11.0740291,57.5942924 C11.2157767,57.5942924 11.4461165,58.0187821 11.3752427,58.1249046 C10.9322816,59.0976937 10.117233,60.9371495 9.42621359,62.2990543 C9.42621359,62.2990543 9.42621359,62.2990543 9.31990291,62.2990543 C9.21359223,62.2990543 8.64660194,61.6269454 8.69975728,61.5031359 C9.78058252,59.7344284 10.4716019,58.3548366 10.9677184,57.5589182 C10.9677184,57.5589182 10.9677184,57.5589182 10.9677184,57.5589182 L11.0740291,57.5942924 Z" id="Path" fill="#FFFFFC" fill-rule="nonzero"></path>
                <path d="M17.5058252,48.6623196 C17.6475728,48.7507549 17.8247573,49.1221835 17.736165,49.228306 C17.1337379,50.1303468 16.0529126,51.7929318 15.1492718,53.0487141 C15.1492718,53.0487141 15.1492718,53.0487141 15.0429612,53.0487141 C14.9366505,53.0487141 14.4759709,52.2704828 14.5468447,52.1643604 C15.8934466,50.5371495 16.8502427,49.3344284 17.3995146,48.6269454 C17.3995146,48.6269454 17.3995146,48.6269454 17.3995146,48.6269454 L17.5058252,48.6623196 Z" id="Path" fill="#FFFFFC" fill-rule="nonzero"></path>
                <path d="M25.2665049,40.8446325 C25.3728155,40.9507549 25.4968447,41.3398706 25.4082524,41.445993 C24.6817961,42.2242243 23.3351942,43.7099386 22.2543689,44.8065372 C22.0949029,44.6296665 21.8291262,43.9575577 21.9177184,43.8691223 C23.5123786,42.4541563 24.6286408,41.428306 25.2842233,40.8092583 C25.2842233,40.8092583 25.2842233,40.8092583 25.390534,40.8092583 L25.2665049,40.8446325 Z" id="Path" fill="#FFFFFC" fill-rule="nonzero"></path>
                <path d="M34.161165,34.3181019 C34.161165,34.4595985 34.3029126,34.8664012 34.161165,34.9371495 C33.3283981,35.5915713 31.7691748,36.8650407 30.511165,37.7670815 C30.511165,37.7670815 30.511165,37.7670815 30.511165,37.7670815 C30.511165,37.7670815 30.2099515,36.8650407 30.3162621,36.7942924 C32.0881068,35.6446325 33.3461165,34.7956529 34.1080097,34.2827277 C34.1080097,34.2827277 34.1080097,34.2827277 34.1966019,34.2827277 L34.161165,34.3181019 Z" id="Path" fill="#FFFFFC" fill-rule="nonzero"></path>
                <rect id="Rectangle" fill="#DA4643" fill-rule="nonzero" x="262.711408" y="114.546673" width="4.9788835" height="4.28027211"></rect>
                <rect id="Rectangle" fill="#DA4643" fill-rule="nonzero" x="262.906311" y="125.866401" width="4.62451456" height="4.35102041"></rect>
                <rect id="Rectangle" fill="#DA4643" fill-rule="nonzero" x="263.048058" y="135.877286" width="4.9788835" height="4.97006803"></rect>
                <rect id="Rectangle" fill="#F39225" fill-rule="nonzero" x="262.481068" y="119.728986" width="6.13058252" height="2.4585034"></rect>
                <rect id="Rectangle" fill="#F39225" fill-rule="nonzero" x="263.36699" y="130.571163" width="6.11286408" height="2.4585034"></rect>
                <rect id="Rectangle" fill="#F39225" fill-rule="nonzero" x="263.083495" y="141.201095" width="6.11286408" height="2.4585034"></rect>
                <rect id="Rectangle" fill="#6ACAD6" fill-rule="nonzero" x="277.648058" y="113.626945" width="13.767233" height="7.97687075"></rect>
                <rect id="Rectangle" fill="#6ACAD6" fill-rule="nonzero" x="278.604854" y="124.999735" width="12.456068" height="7.8707483"></rect>
                <rect id="Rectangle" fill="#6ACAD6" fill-rule="nonzero" x="278.020146" y="136.160279" width="13.6254854" height="7.39319728"></rect>
                <path d="M203.93932,21.8487141 L175.589806,21.8487141 C175.008737,21.8439982 174.449844,22.0711195 174.037292,22.4796191 C173.624741,22.8881186 173.392699,23.4441655 173.392718,24.0242243 L173.392718,29.7902107 C173.392718,31.0014801 174.376388,31.983408 175.589806,31.983408 L203.93932,31.983408 C205.145813,31.9736951 206.118729,30.9946064 206.118689,29.7902107 L206.118689,24.0242243 C206.118689,23.4472431 205.889078,22.8938936 205.480367,22.4859063 C205.071656,22.077919 204.517325,21.8487141 203.93932,21.8487141 L203.93932,21.8487141 Z M176.139078,30.568442 C175.86508,30.568442 175.642961,30.3467164 175.642961,30.0732039 C175.642961,29.7996915 175.86508,29.5779658 176.139078,29.5779658 C176.413075,29.5779658 176.635194,29.7996915 176.635194,30.0732039 C176.635194,30.3467164 176.413075,30.568442 176.139078,30.568442 Z M177.751456,30.568442 C177.477459,30.568442 177.25534,30.3467163 177.25534,30.0732039 C177.25534,29.7996915 177.477459,29.5779658 177.751456,29.5779658 C178.025454,29.5779658 178.247573,29.7996915 178.247573,30.0732039 C178.247573,30.3467163 178.025454,30.568442 177.751456,30.568442 Z M176.971845,27.2255849 C176.130281,27.2255849 175.448058,26.5445704 175.448058,25.7044964 C175.448058,24.8644225 176.130281,24.183408 176.971845,24.183408 C177.813409,24.183408 178.495631,24.8644225 178.495631,25.7044964 C178.466983,26.5237787 177.79308,27.1730226 176.971845,27.1725236 L176.971845,27.2255849 Z M179.41699,30.568442 C179.239745,30.568442 179.075963,30.4740502 178.987341,30.320823 C178.898718,30.1675958 178.898718,29.9788121 178.987341,29.8255849 C179.075963,29.6723576 179.239745,29.5779658 179.41699,29.5779658 C179.690988,29.5779658 179.913107,29.7996915 179.913107,30.0732039 C179.913107,30.3467163 179.690988,30.568442 179.41699,30.568442 Z M202.273786,30.1439522 L191.252913,30.1439522 L191.252913,28.7997345 L202.273786,28.7997345 L202.273786,30.1439522 Z M202.273786,27.5793264 L191.252913,27.5793264 L191.252913,26.3412311 L202.273786,26.3412311 L202.273786,27.5793264 Z M202.273786,25.0147005 L191.252913,25.0147005 L191.252913,23.7766053 L202.273786,23.7766053 L202.273786,25.0147005 Z" id="Shape" fill="#FFFFFF" fill-rule="nonzero"></path>
                <path d="M203.93932,32.7262651 L175.589806,32.7262651 C175.005653,32.7215048 174.44404,32.9510441 174.030968,33.3633848 C173.617896,33.7757256 173.38795,34.336344 173.392718,34.9194624 L173.392718,40.6677617 C173.36859,41.2645999 173.589372,41.845442 174.00405,42.276077 C174.418728,42.706712 174.991423,42.9498802 175.589806,42.9493944 L203.93932,42.9493944 C205.145813,42.9396815 206.118729,41.9605928 206.118689,40.7561971 L206.118689,34.9194624 C206.123414,34.3394228 205.895889,33.7815186 205.486665,33.3696979 C205.077441,32.9578772 204.520408,32.726246 203.93932,32.7262651 L203.93932,32.7262651 Z M176.139078,41.3929318 C176.004457,41.3977343 175.873667,41.3476854 175.776759,41.2542847 C175.679851,41.1608839 175.625157,41.0321617 175.625243,40.8976937 C175.670938,40.6552389 175.883072,40.4796049 176.130218,40.4796049 C176.377364,40.4796049 176.589499,40.6552389 176.635194,40.8976937 C176.635194,41.1712062 176.413075,41.3929318 176.139078,41.3929318 Z M177.751456,41.3929318 C177.477459,41.3929318 177.25534,41.1712062 177.25534,40.8976937 C177.264504,40.6280613 177.481346,40.4116035 177.751456,40.4024556 C177.883035,40.4024556 178.009224,40.4546323 178.102264,40.5475075 C178.195304,40.6403827 178.247573,40.7663484 178.247573,40.8976937 C178.252599,41.0305137 178.201946,41.1594158 178.107794,41.2534007 C178.013643,41.3473857 177.884512,41.3979493 177.751456,41.3929318 L177.751456,41.3929318 Z M176.971845,38.0677617 C176.346802,38.0749339 175.779298,37.7046048 175.53511,37.1302089 C175.290921,36.5558131 175.418396,35.8910784 175.857835,35.4473168 C176.297274,35.0035553 176.96167,34.8686298 177.539869,35.1057294 C178.118068,35.342829 178.49559,35.9050089 178.495631,36.5289862 C178.495687,37.3719689 177.816267,38.0580723 176.971845,38.0677617 L176.971845,38.0677617 Z M179.41699,41.3929318 C179.283935,41.3979493 179.154804,41.3473857 179.060652,41.2534007 C178.966501,41.1594158 178.915847,41.0305137 178.920874,40.8976937 C178.920874,40.6241813 179.142993,40.4024556 179.41699,40.4024556 C179.687101,40.4116035 179.903943,40.6280613 179.913107,40.8976937 C179.913107,41.1712062 179.690988,41.3929318 179.41699,41.3929318 L179.41699,41.3929318 Z M202.273786,40.968442 L191.252913,40.968442 L191.252913,39.7303468 L202.273786,39.7303468 L202.273786,40.968442 Z M202.273786,38.4038162 L191.252913,38.4038162 L191.252913,37.1657209 L202.273786,37.1657209 L202.273786,38.4038162 Z M202.273786,35.8391903 L191.252913,35.8391903 L191.252913,34.6010951 L202.273786,34.6010951 L202.273786,35.8391903 Z" id="Shape" fill="#FFFFFF" fill-rule="nonzero"></path>
                <path d="M203.93932,43.6038162 L175.589806,43.6038162 C175.005653,43.5990558 174.44404,43.8285951 174.030968,44.2409359 C173.617896,44.6532766 173.38795,45.213895 173.392718,45.7970134 L173.392718,51.5453128 C173.392718,52.7565822 174.376388,53.73851 175.589806,53.73851 L203.93932,53.73851 C205.145813,53.7287972 206.118729,52.7497084 206.118689,51.5453128 L206.118689,45.7970134 C206.123414,45.2169738 205.895889,44.6590696 205.486665,44.2472489 C205.077441,43.8354282 204.520408,43.603797 203.93932,43.6038162 L203.93932,43.6038162 Z M176.139078,52.2704828 C176.004457,52.2752853 175.873667,52.2252365 175.776759,52.1318357 C175.679851,52.0384349 175.625157,51.9097127 175.625243,51.7752447 C175.670938,51.5327899 175.883072,51.3571559 176.130218,51.3571559 C176.377364,51.3571559 176.589499,51.5327899 176.635194,51.7752447 C176.635194,52.0487572 176.413075,52.2704828 176.139078,52.2704828 L176.139078,52.2704828 Z M177.751456,52.2704828 C177.611143,52.2907461 177.468848,52.2501179 177.360491,52.1588536 C177.252134,52.0675893 177.188069,51.9344095 177.184466,51.7929318 C177.19363,51.5232994 177.410472,51.3068416 177.680583,51.2976937 C177.95458,51.2976937 178.176699,51.5194194 178.176699,51.7929318 C178.178214,52.0372714 177.994719,52.2433381 177.751456,52.2704828 L177.751456,52.2704828 Z M176.971845,48.9453128 C176.345197,48.9524625 175.776584,48.5801981 175.533456,48.0036161 C175.290328,47.4270341 175.421083,46.7609102 175.864218,46.3185592 C176.307354,45.8762081 176.974659,45.7456853 177.552264,45.9883829 C178.129869,46.2310804 178.502793,46.7986863 178.495631,47.4242243 C178.486058,48.260308 177.809411,48.9357566 176.971845,48.9453128 L176.971845,48.9453128 Z M179.41699,52.2704828 C179.159723,52.2609648 178.956134,52.0499203 178.956311,51.7929318 C178.956311,51.5194194 179.17843,51.2976937 179.452427,51.2976937 C179.722538,51.3068416 179.93938,51.5232994 179.948544,51.7929318 C179.944075,51.9275454 179.884874,52.0545356 179.784584,52.1446368 C179.684294,52.234738 179.551567,52.2801773 179.41699,52.2704828 L179.41699,52.2704828 Z M202.273786,51.8636801 L191.252913,51.8636801 L191.252913,50.6255849 L202.273786,50.6255849 L202.273786,51.8636801 Z M202.273786,49.2813672 L191.252913,49.2813672 L191.252913,48.060959 L202.273786,48.060959 L202.273786,49.2813672 Z M202.273786,46.7167413 L191.252913,46.7167413 L191.252913,45.4786461 L202.273786,45.4786461 L202.273786,46.7167413 Z" id="Shape" fill="#FFFFFF" fill-rule="nonzero"></path>
                <polygon id="Rectangle" fill="#61C4B7" fill-rule="nonzero" transform="translate(67.013060, 47.456345) rotate(-26.910000) translate(-67.013060, -47.456345) " points="62.6881996 43.0829609 71.3316656 43.0891395 71.3379202 51.829729 62.6944542 51.8235503"></polygon>
                <path d="M82.0186893,16.4187821 C85.0013041,22.1547356 84.2138267,29.1215028 80.0257952,34.0498013 C75.8377637,38.9780998 69.0804653,40.8897062 62.9248853,38.8875642 C56.7693053,36.8854223 52.4372716,31.3669395 51.9616701,24.9217644 C51.4860686,18.4765893 54.9613019,12.3840319 60.7565534,9.50313589 C68.5469826,5.63041064 78.0092259,8.70806602 82.0186893,16.4187821 L82.0186893,16.4187821 Z" id="Path" fill="#F2705A" fill-rule="nonzero"></path>
                <path d="M72.4330097,25.4922515 L76.8803398,26.783408 L83.631068,29.4010951 L91.568932,34.9902107 L85.4029126,42.9493944 L77.6953883,35.8745645 L74.151699,30.568442 C74.151699,30.568442 70.8737864,25.5806869 72.4330097,25.4922515 Z" id="Path" fill="#F39225" fill-rule="nonzero"></path>
                <path d="M69.9878641,1.20789779 L48.5485437,12.0854488 C46.9808603,12.8655887 45.7923462,14.2410587 45.2494178,15.9035346 C44.7064893,17.5660105 44.8545595,19.3764355 45.6604369,20.9289862 L61.6070388,52.1289862 C62.3984775,53.6842486 63.7791984,54.8597247 65.4426043,55.3943931 C67.1060103,55.9290614 68.9144188,55.7786668 70.4662621,54.9766053 L91.9055825,44.0990543 C93.4763627,43.3220803 94.6687701,41.9479693 95.2151311,40.2851839 C95.761492,38.6223985 95.6160333,36.8102444 94.8114078,35.2555168 L78.793932,4.03782977 C77.1395549,0.835412028 73.203128,-0.429604368 69.9878641,1.20789779 L69.9878641,1.20789779 Z M68.2160194,49.9004148 C67.167808,50.4333045 65.9011517,50.2827835 65.0075586,49.5191425 C64.1139654,48.7555016 63.7697342,47.5294011 64.1356154,46.4134101 C64.5014966,45.2974192 65.5053047,44.5117141 66.6782776,44.4232064 C67.8512505,44.3346986 68.9619698,44.9608502 69.4917476,46.0092583 C70.1919378,47.4552269 69.5901372,49.1941969 68.1451456,49.9004148 L68.2160194,49.9004148 Z M77.1461165,34.105857 L76.8980583,33.7874896 C76.817956,33.6578404 76.7291612,33.5337477 76.6322816,33.4160611 L76.4019417,33.0623196 L76.1893204,32.7616393 C76.1186365,32.6455767 76.0417453,32.5333963 75.9589806,32.4255849 L75.7286408,32.0541563 L75.5160194,31.7357889 L75.2502427,31.3112992 C75.1616505,31.1521155 75.0730583,30.9929318 74.9667476,30.8337481 L74.7009709,30.3738842 C74.6519793,30.268074 74.5926292,30.1673575 74.5237864,30.0732039 L74.3288835,29.7194624 L74.151699,29.4187821 L73.9745146,29.1004148 L73.7796117,28.7997345 C73.7796117,28.7112992 73.7796117,28.6051767 73.6378641,28.5167413 L73.4783981,28.2514352 L73.3543689,27.9861291 C73.3059782,27.9072985 73.2644817,27.8244524 73.2303398,27.73851 C73.1822361,27.6656963 73.1407289,27.5887479 73.1063107,27.5085781 L73,27.2963332 C73,27.2963332 72.9114078,27.1548366 72.8936893,27.1017753 C72.8905117,27.0428611 72.8905117,26.9838188 72.8936893,26.9249046 L72.6456311,26.7303468 L72.6456311,26.6065372 C72.6551773,26.559853 72.6551773,26.5117249 72.6456311,26.4650407 L72.6456311,26.3412311 L72.6456311,26.3412311 L72.6456311,26.3412311 C75.6122492,27.0155126 78.5165686,27.9385159 81.3276699,29.1004148 C86.0230583,31.0813672 90.2754854,34.1235441 87.1747573,37.9439522 C87.0228513,38.1384256 86.8570461,38.3216706 86.6786408,38.4922515 C86.6329565,38.5289475 86.5913727,38.5704577 86.5546117,38.6160611 L86.0762136,39.0051767 L86.0762136,39.0051767 C85.9185078,39.1072095 85.752562,39.1959516 85.5800971,39.2704828 C85.5068831,39.3131086 85.4297518,39.3486446 85.3497573,39.3766053 L85.0131068,39.4827277 L84.7650485,39.4827277 L84.4283981,39.4827277 L83.8436893,39.4827277 L83.5956311,39.4827277 L83.2589806,39.4827277 L83.0109223,39.4827277 L82.6565534,39.3589182 L82.4084951,39.2527958 L82.0541262,39.0582379 L81.8237864,38.9344284 L81.3631068,38.6514352 C81.3295316,38.6123835 81.2869733,38.5820385 81.2390777,38.5629998 L80.6720874,38.1031359 L80.459466,37.9262651 L80.0873786,37.5902107 L79.8393204,37.3602787 L79.5203883,37.0242243 L79.2723301,36.7589182 C79.1627933,36.6554033 79.0620436,36.543 78.9711165,36.4228638 L78.475,35.8745645 L78.1915049,35.520823 L77.961165,35.2201427 L77.6953883,34.8840883 L77.4296117,34.5480338 L77.323301,34.3711631 L77.323301,34.3711631 C77.2465289,34.295883 77.1862014,34.2055519 77.1461165,34.105857 L77.1461165,34.105857 Z M81.5048544,27.8976937 C78.6381193,26.7171406 75.6738496,25.788008 72.6456311,25.120823 C72.3983655,25.0761389 72.1432448,25.1134075 71.9191748,25.2269454 C71.7788598,25.2896502 71.6568905,25.3870528 71.5648058,25.5099386 C71.3011343,25.8276744 71.2458503,26.2691633 71.4230583,26.6419114 C72.8141358,29.598117 74.4811293,32.4169213 76.4019417,35.060959 C75.74842,35.5486189 75.0549548,35.9805277 74.3288835,36.3521155 C68.3292436,39.4234536 60.9926147,37.8509563 56.7848301,32.5918086 C52.5770456,27.3326609 52.6628194,19.842594 56.9899407,14.6808394 C61.3170621,9.51908486 68.6877845,8.1144155 74.6155218,11.3218588 C80.5432592,14.5293021 83.3872147,21.4610382 81.4162621,27.8976937 L81.5048544,27.8976937 Z" id="Shape" fill="#FFFFFF" fill-rule="nonzero"></path>
                <path d="M66.532767,20.9289862 C64.9739616,21.7253527 64.3566566,23.6320995 65.1537626,25.1884885 C65.9508686,26.7448776 67.8607306,27.3619127 69.4202242,26.5668901 C70.9797179,25.7718675 71.598672,23.8656536 70.8029126,22.3085781 C69.9993728,20.7575935 68.0943021,20.1421063 66.532767,20.9289862 L66.532767,20.9289862 Z" id="Path" fill="#314F60" fill-rule="nonzero"></path>
                <path d="M0,77.5806869 L19.4902913,77.5806869 L19.4902913,53.720823 L0,53.720823 L0,77.5806869 Z M0.549271845,54.2868094 L18.9587379,54.2868094 L18.9587379,77.0147005 L0.549271845,77.0147005 L0.549271845,54.2868094 Z" id="Shape" fill="#FFFFFF" fill-rule="nonzero"></path>
                <rect id="Rectangle" fill="#FFFFFF" fill-rule="nonzero" x="2.05533981" y="56.7099386" width="15.3973301" height="1"></rect>
                <rect id="Rectangle" fill="#FFFFFF" fill-rule="nonzero" x="2.05533981" y="74.2201427" width="15.3973301" height="1"></rect>
                <rect id="Rectangle" fill="#FFFFFF" fill-rule="nonzero" x="2.05533981" y="58.6378298" width="15.3973301" height="1"></rect>
                <rect id="Rectangle" fill="#FFFFFF" fill-rule="nonzero" x="2.05533981" y="60.583408" width="15.3973301" height="1"></rect>
                <rect id="Rectangle" fill="#FFFFFF" fill-rule="nonzero" x="2.05533981" y="68.383408" width="15.3973301" height="1"></rect>
                <rect id="Rectangle" fill="#FFFFFF" fill-rule="nonzero" x="2.05533981" y="70.3289862" width="15.3973301" height="1"></rect>
                <rect id="Rectangle" fill="#FFFFFF" fill-rule="nonzero" x="2.05533981" y="72.2745645" width="15.3973301" height="1"></rect>
                <rect id="Rectangle" fill="#FFFFFF" fill-rule="nonzero" x="2.05533981" y="62.5466733" width="15.3973301" height="1"></rect>
                <rect id="Rectangle" fill="#FFFFFF" fill-rule="nonzero" x="2.05533981" y="64.4922515" width="15.3973301" height="1"></rect>
                <rect id="Rectangle" fill="#FFFFFF" fill-rule="nonzero" x="2.05533981" y="66.4378298" width="15.3973301" height="1"></rect>
                <polygon id="Path" fill="#FFFFFF" fill-rule="nonzero" points="7.06966019 49.7589182 7.06966019 53.4555168 7.63665049 53.4555168 7.63665049 50.3249046 26.0461165 50.3249046 26.0461165 73.0704828 19.8446602 73.0704828 19.8446602 73.6364692 26.5953883 73.6364692 26.5953883 49.7589182"></polygon>
                <rect id="Rectangle" fill="#FFFFFF" fill-rule="nonzero" x="9.14271845" y="52.7480338" width="15.3973301" height="1"></rect>
                <rect id="Rectangle" fill="#FFFFFF" fill-rule="nonzero" x="19.8446602" y="70.275925" width="4.69538835" height="1"></rect>
                <rect id="Rectangle" fill="#FFFFFF" fill-rule="nonzero" x="19.8446602" y="54.6936121" width="4.69538835" height="1"></rect>
                <rect id="Rectangle" fill="#FFFFFF" fill-rule="nonzero" x="19.8446602" y="56.6568774" width="4.69538835" height="1"></rect>
                <rect id="Rectangle" fill="#FFFFFF" fill-rule="nonzero" x="19.8446602" y="64.4391903" width="4.69538835" height="1"></rect>
                <rect id="Rectangle" fill="#FFFFFF" fill-rule="nonzero" x="19.8446602" y="66.3847685" width="4.69538835" height="1"></rect>
                <rect id="Rectangle" fill="#FFFFFF" fill-rule="nonzero" x="19.8446602" y="68.3303468" width="4.69538835" height="1"></rect>
                <rect id="Rectangle" fill="#FFFFFF" fill-rule="nonzero" x="19.8446602" y="58.5847685" width="4.69538835" height="1"></rect>
                <rect id="Rectangle" fill="#FFFFFF" fill-rule="nonzero" x="19.8446602" y="60.5303468" width="4.69538835" height="1"></rect>
                <rect id="Rectangle" fill="#FFFFFF" fill-rule="nonzero" x="19.8446602" y="62.4936121" width="4.69538835" height="1"></rect>
                <path d="M22.8390777,139.520823 L11.3043689,139.520823 L11.3043689,128.024224 L22.8390777,128.024224 L22.8390777,139.520823 Z M11.9776699,138.848714 L22.1657767,138.848714 L22.1657767,128.678646 L11.9776699,128.678646 L11.9776699,138.848714 Z" id="Shape" fill="#FFFFFF" fill-rule="nonzero"></path>
                <path d="M35.8975728,139.520823 L24.3805825,139.520823 L24.3805825,128.024224 L35.8975728,128.024224 L35.8975728,139.520823 Z M25.036165,138.848714 L35.2419903,138.848714 L35.2419903,128.678646 L25.036165,128.678646 L25.036165,138.848714 Z" id="Shape" fill="#FFFFFF" fill-rule="nonzero"></path>
                <path d="M22.8390777,152.131707 L11.3043689,152.131707 L11.3043689,140.635109 L22.8390777,140.635109 L22.8390777,152.131707 Z M11.9776699,151.477286 L22.1657767,151.477286 L22.1657767,141.28953 L11.9776699,141.28953 L11.9776699,151.477286 Z" id="Shape" fill="#FFFFFF" fill-rule="nonzero"></path>
                <path d="M35.8975728,152.131707 L24.3805825,152.131707 L24.3805825,140.635109 L35.8975728,140.635109 L35.8975728,152.131707 Z M25.036165,151.477286 L35.2419903,151.477286 L35.2419903,141.28953 L25.036165,141.28953 L25.036165,151.477286 Z" id="Shape" fill="#FFFFFF" fill-rule="nonzero"></path>
                <path d="M131.524029,33.2745645 L131.524029,50.6786461 L113.575243,50.6786461 L113.575243,33.2745645 L131.524029,33.2745645 L131.524029,33.2745645 Z M114.567476,47.0704828 L130.177427,47.0704828 L130.177427,34.2827277 L114.567476,34.2827277 L114.567476,47.0704828 L114.567476,47.0704828 Z M131.896117,32.920823 L113.203155,32.920823 L113.203155,51.0500747 L131.896117,51.0500747 L131.896117,32.9031359 L131.896117,32.920823 Z M114.939563,46.7167413 L114.939563,34.6541563 L129.80534,34.6541563 L129.80534,46.6990543 L114.939563,46.7167413 Z" id="Shape" fill="#FFFFFF" fill-rule="nonzero"></path>
                <path d="M118.713592,37.183408 C119.303585,37.1930642 119.776778,37.6732926 119.776699,38.2623196 C119.830277,38.6774655 119.638475,39.0860828 119.284616,39.3106573 C118.930758,39.5352319 118.478708,39.5352319 118.12485,39.3106573 C117.770991,39.0860828 117.579189,38.6774655 117.632767,38.2623196 C117.632767,37.6664532 118.116669,37.183408 118.713592,37.183408 L118.713592,37.183408 Z M118.713592,36.8119794 C117.911171,36.8119794 117.26068,37.4613188 117.26068,38.2623196 C117.26068,39.0633203 117.911171,39.7126597 118.713592,39.7126597 C119.516014,39.7126597 120.166505,39.0633203 120.166505,38.2623196 C120.166505,37.4613188 119.516014,36.8119794 118.713592,36.8119794 L118.713592,36.8119794 Z" id="Shape" fill="#FFFFFF" fill-rule="nonzero"></path>
                <path d="M125.676942,38.6868094 L128.494175,43.8160611 L117.313835,43.8160611 L118.713592,41.5698026 L119.847573,42.2949726 L120.166505,42.4895304 L120.361408,42.1888502 L121.81432,40.031027 L123.586165,41.198374 L123.905097,41.428306 L124.029126,41.1806869 L125.606068,38.7575577 L125.676942,38.6868094 Z M125.606068,38.0323876 L123.692476,40.968442 L121.672573,39.5888502 L120.007039,42.0473536 L118.713592,41.0568774 L116.782282,44.028306 L116.782282,44.1874896 L129.185194,44.1874896 L125.800971,37.9616393 L125.606068,38.0323876 Z" id="Shape" fill="#FFFFFF" fill-rule="nonzero"></path>
                <polygon id="Path" fill="#FFFFFF" fill-rule="nonzero" points="261.223058 96.3466733 271.180825 96.3466733 271.180825 99.0704828 271.69466 99.0704828 271.69466 96.3466733 281.652427 96.3466733 281.652427 101.829667 282.166262 101.829667 282.166262 95.8337481 271.69466 95.8337481 271.69466 94.6840883 271.180825 94.6840883 271.180825 95.8337481 260.709223 95.8337481 260.709223 101.865041 261.223058 101.865041"></polygon>
                <path d="M283.867233,102.395653 L279.951456,102.395653 L278.941505,103.403816 L278.941505,105.172524 L284.806311,105.172524 L284.806311,103.403816 L283.867233,102.395653 Z M284.345631,104.730347 L279.508495,104.730347 L279.508495,103.598374 L280.217233,102.908578 L283.636893,102.908578 L284.345631,103.598374 L284.345631,104.730347 Z" id="Shape" fill="#FFFFFF" fill-rule="nonzero"></path>
                <path d="M262.746845,102.395653 L259.025971,102.395653 L258.016019,103.403816 L258.016019,105.172524 L263.880825,105.172524 L263.880825,103.403816 L262.888592,102.395653 L262.746845,102.395653 Z M263.36699,104.730347 L258.547573,104.730347 L258.547573,103.598374 L259.238592,102.908578 L262.675971,102.908578 L263.36699,103.598374 L263.36699,104.730347 Z" id="Shape" fill="#FFFFFF" fill-rule="nonzero"></path>
                <path d="M273.218447,102.395653 L269.497573,102.395653 L268.50534,103.403816 L268.50534,105.172524 L274.352427,105.172524 L274.352427,103.403816 L273.360194,102.395653 L273.218447,102.395653 Z M273.838592,104.730347 L269.001456,104.730347 L269.001456,103.598374 L269.710194,102.908578 L273.147573,102.908578 L273.838592,103.598374 L273.838592,104.730347 Z" id="Shape" fill="#FFFFFF" fill-rule="nonzero"></path>
                <path d="M268.948301,94.3480338 L273.998058,94.3480338 C274.608957,94.3480338 275.194836,94.1057848 275.626807,93.6745787 C276.058778,93.2433726 276.301456,92.6585316 276.301456,92.0487141 L276.301456,91.2704828 C276.301456,90.6606653 276.058778,90.0758244 275.626807,89.6446183 C275.194836,89.2134122 274.608957,88.9711631 273.998058,88.9711631 L268.948301,88.9711631 C268.337402,88.9711631 267.751524,89.2134122 267.319553,89.6446183 C266.887582,90.0758244 266.644903,90.6606653 266.644903,91.2704828 L266.644903,92.0487141 C266.644903,92.6585316 266.887582,93.2433726 267.319553,93.6745787 C267.751524,94.1057848 268.337402,94.3480338 268.948301,94.3480338 Z M267.176456,91.2704828 C267.176456,90.2936527 267.969738,89.5017753 268.948301,89.5017753 L273.998058,89.5017753 C274.976621,89.5017753 275.769903,90.2936527 275.769903,91.2704828 L275.769903,92.0487141 C275.769903,93.0255443 274.976621,93.8174216 273.998058,93.8174216 L268.948301,93.8174216 C267.969738,93.8174216 267.176456,93.0255443 267.176456,92.0487141 L267.176456,91.2704828 Z" id="Shape" fill="#FFFFFF" fill-rule="nonzero"></path>
                <path d="M268.84199,91.0936121 L274.157524,91.0936121 C274.294523,91.0936121 274.405583,90.9827493 274.405583,90.845993 C274.405583,90.7092368 274.294523,90.598374 274.157524,90.598374 L268.84199,90.598374 C268.704992,90.598374 268.593932,90.7092368 268.593932,90.845993 C268.593932,90.9827493 268.704992,91.0936121 268.84199,91.0936121 Z" id="Path" fill="#FFFFFF" fill-rule="nonzero"></path>
                <path d="M268.84199,92.4732039 L274.157524,92.4732039 C274.297659,92.4735151 274.413959,92.3651603 274.423301,92.2255849 C274.423301,92.0790603 274.304309,91.9602787 274.157524,91.9602787 L268.84199,91.9602787 C268.702167,91.9696042 268.59362,92.0856986 268.593932,92.2255849 C268.593932,92.3623411 268.704992,92.4732039 268.84199,92.4732039 L268.84199,92.4732039 Z" id="Path" fill="#FFFFFF" fill-rule="nonzero"></path>
                <path d="M281.811893,71.2487141 C276.45154,71.0234521 272.22204,66.619962 272.22204,61.2643604 C272.22204,55.9087588 276.45154,51.5052686 281.811893,51.2800066 L282.006796,51.2800066 L282.006796,61.0786461 L291.822816,61.0786461 L291.822816,61.2732039 C291.813042,66.7853859 287.333861,71.2487228 281.811893,71.2487141 L281.811893,71.2487141 Z M281.723301,51.6868094 C276.447333,51.7845458 272.230856,56.0990012 272.263494,61.3664338 C272.296132,66.6338663 276.565752,70.8959259 281.842527,70.9285063 C287.119303,70.9610868 291.441411,66.7520753 291.53932,61.4854488 L281.723301,61.4854488 L281.723301,51.6868094 Z" id="Shape" fill="#FFFFFF" fill-rule="nonzero"></path>
                <path d="M292.673301,60.6364692 L282.502913,60.6364692 L282.502913,50.4664012 L282.680097,50.4664012 C288.199191,50.4664012 292.673301,54.9325892 292.673301,60.4419114 L292.673301,60.6364692 Z M282.875,60.2827277 L292.354369,60.2827277 C292.260197,55.1225141 288.097336,50.9592127 282.928155,50.8555168 L282.875,60.2827277 Z" id="Shape" fill="#FFFFFF" fill-rule="nonzero"></path>
                <path d="M258.299515,16.860959 L258.299515,16.860959 L227.575728,16.860959 L227.575728,16.860959 C222.35588,17.3501609 218.272648,21.5649863 217.957607,26.7890493 C217.642567,32.0131122 221.189792,36.6864692 226.313154,37.797218 C231.436516,38.9079668 236.606141,36.1244297 238.490291,31.2405509 L247.349515,31.2405509 C249.233664,36.1244297 254.40329,38.9079668 259.526652,37.797218 C264.650014,36.6864692 268.197239,32.0131122 267.882199,26.7890493 C267.567158,21.5649863 263.483926,17.3501609 258.264078,16.860959 L258.299515,16.860959 Z" id="Path" fill="#FFFFFF" fill-rule="nonzero"></path>
                <polygon id="Path" fill="#6DBAC1" fill-rule="nonzero" points="232.696359 24.9793264 230.233495 24.9793264 230.233495 22.5031359 226.353155 22.5031359 226.353155 24.9793264 223.890291 24.9793264 223.890291 28.8351087 226.353155 28.8351087 226.353155 31.3112992 230.233495 31.3112992 230.233495 28.8351087 232.696359 28.8351087"></polygon>
                <path d="M260.071359,23.3167413 C260.078537,24.3269993 259.474418,25.2417718 258.541458,25.6333557 C257.608498,26.0249396 256.531041,25.815962 255.812853,25.1041305 C255.094666,24.3922991 254.877654,23.3182644 255.263282,22.384193 C255.648911,21.4501216 256.560983,20.8405763 257.573058,20.8405509 C258.945942,20.8405164 260.061622,21.946323 260.071359,23.3167413 L260.071359,23.3167413 Z" id="Path" fill="#6DBAC1" fill-rule="nonzero"></path>
                <path d="M260.071359,32.1249046 C260.078537,33.1351626 259.474418,34.0499351 258.541458,34.441519 C257.608498,34.8331029 256.531041,34.6241252 255.812853,33.9122938 C255.094666,33.2004623 254.877654,32.1264277 255.263282,31.1923563 C255.648911,30.2582848 256.560983,29.6487395 257.573058,29.6487141 C258.945942,29.6486797 260.061622,30.7544863 260.071359,32.1249046 L260.071359,32.1249046 Z" id="Path" fill="#DD665E" fill-rule="nonzero"></path>
                <path d="M261.984951,30.2147005 C260.972902,30.2218656 260.056507,29.6188158 259.664228,28.6875078 C259.27195,27.7561999 259.481298,26.6806506 260.194392,25.9637347 C260.907486,25.2468187 261.983426,25.0301913 262.919154,25.4151368 C263.854882,25.8000823 264.465509,26.7105396 264.465534,27.720823 C264.470255,28.3806087 264.210995,29.0149908 263.745282,29.483199 C263.27957,29.9514072 262.645924,30.2147173 261.984951,30.2147005 L261.984951,30.2147005 Z" id="Path" fill="#3B4450" fill-rule="nonzero"></path>
                <path d="M253.161165,30.2147005 C252.149115,30.2218656 251.23272,29.6188158 250.840442,28.6875078 C250.448163,27.7561999 250.657512,26.6806506 251.370606,25.9637347 C252.0837,25.2468187 253.159639,25.0301913 254.095367,25.4151368 C255.031096,25.8000823 255.641722,26.7105396 255.641748,27.720823 C255.646469,28.3806087 255.387208,29.0149908 254.921496,29.483199 C254.455784,29.9514072 253.822138,30.2147173 253.161165,30.2147005 L253.161165,30.2147005 Z" id="Path" fill="#3B4450" fill-rule="nonzero"></path>
                <path d="M241.626456,26.5181019 C241.626456,27.006517 241.229815,27.4024556 240.740534,27.4024556 L238.206796,27.4024556 C237.717515,27.4024556 237.320874,27.006517 237.320874,26.5181019 L237.320874,26.5181019 C237.330523,26.0366078 237.724352,25.6513389 238.206796,25.6514352 L240.740534,25.6514352 C240.97385,25.6466811 241.199261,25.7358873 241.365933,25.8989369 C241.532605,26.0619866 241.626505,26.28515 241.626456,26.5181019 L241.626456,26.5181019 Z" id="Path" fill="#DD665E" fill-rule="nonzero"></path>
                <path d="M248.589806,26.5181019 C248.589853,26.755744 248.494087,26.9834053 248.324092,27.1497718 C248.154098,27.3161382 247.924181,27.4072085 247.686165,27.4024556 L245.152427,27.4024556 C244.919062,27.4025041 244.695503,27.3087709 244.532164,27.1423937 C244.368825,26.9760165 244.279461,26.7510052 244.284223,26.5181019 L244.284223,26.5181019 C244.284223,26.0394551 244.672931,25.6514352 245.152427,25.6514352 L247.686165,25.6514352 C247.92114,25.6466971 248.148371,25.7353554 248.317847,25.8978969 C248.487323,26.0604384 248.585153,26.2835414 248.589806,26.5181019 Z" id="Path" fill="#6DBAC1" fill-rule="nonzero"></path>
                <path d="M247.119175,16.4187821 C247.119175,17.3956123 246.325893,18.1874896 245.34733,18.1874896 L240.634223,18.1874896 C239.655661,18.1874896 238.862379,17.3956123 238.862379,16.4187821 L238.862379,16.4187821 C238.862379,15.441952 239.655661,14.6500747 240.634223,14.6500747 L245.34733,14.6500747 C246.325893,14.6500747 247.119175,15.441952 247.119175,16.4187821 Z" id="Path" fill="#FFFFFF" fill-rule="nonzero"></path>
                <text id="UP" fill="#FFFFFF" font-family="Helvetica" font-size="19.4" font-weight="normal">
                    <tspan x="118.837621" y="140.727626">UP</tspan>
                </text>
            </g>
        </g>
    </g>
</svg>