<?xml version="1.0" encoding="UTF-8"?>
<svg width="856px" height="480px" viewBox="0 0 856 480" version="1.1" xmlns="http://www.w3.org/2000/svg" xmlns:xlink="http://www.w3.org/1999/xlink">
    <!-- Generator: Sketch 53.1 (72631) - https://sketchapp.com -->
    <title>Group 3</title>
    <desc>Created with Sketch.</desc>
    <defs>
        <linearGradient x1="0.000269335914%" y1="50.0018118%" x2="99.9822026%" y2="50.0018118%" id="linearGradient-1">
            <stop stop-color="#5963AC" offset="0%"></stop>
            <stop stop-color="#5E7DB4" offset="16%"></stop>
            <stop stop-color="#659EBF" offset="39%"></stop>
            <stop stop-color="#69B6C6" offset="61%"></stop>
            <stop stop-color="#6CC4CA" offset="82%"></stop>
            <stop stop-color="#6DC9CC" offset="100%"></stop>
        </linearGradient>
        <linearGradient x1="0.00270823354%" y1="50.0059839%" x2="100.027515%" y2="50.0059839%" id="linearGradient-2">
            <stop stop-color="#5963AC" offset="0%"></stop>
            <stop stop-color="#5E7DB4" offset="16%"></stop>
            <stop stop-color="#659EBF" offset="39%"></stop>
            <stop stop-color="#69B6C6" offset="61%"></stop>
            <stop stop-color="#6CC4CA" offset="82%"></stop>
            <stop stop-color="#6DC9CC" offset="100%"></stop>
        </linearGradient>
        <linearGradient x1="0.0192205865%" y1="50.0037731%" x2="100.017692%" y2="50.0037731%" id="linearGradient-3">
            <stop stop-color="#6DC9CC" offset="0%"></stop>
            <stop stop-color="#6CC4CA" offset="18%"></stop>
            <stop stop-color="#69B6C6" offset="39%"></stop>
            <stop stop-color="#659EBF" offset="61%"></stop>
            <stop stop-color="#5E7DB4" offset="84%"></stop>
            <stop stop-color="#5963AC" offset="100%"></stop>
        </linearGradient>
        <linearGradient x1="0.00275727373%" y1="50.0010708%" x2="100.015042%" y2="50.0010708%" id="linearGradient-4">
            <stop stop-color="#C1BDDE" offset="0%"></stop>
            <stop stop-color="#C6C2E0" offset="29%"></stop>
            <stop stop-color="#D3D0E8" offset="64%"></stop>
            <stop stop-color="#E8E7F3" offset="100%"></stop>
        </linearGradient>
        <linearGradient x1="0.0544738046%" y1="49.9956871%" x2="100%" y2="49.9956871%" id="linearGradient-5">
            <stop stop-color="#5963AC" offset="0%"></stop>
            <stop stop-color="#5E67AE" offset="18%"></stop>
            <stop stop-color="#6C74B5" offset="39%"></stop>
            <stop stop-color="#8489C1" offset="62%"></stop>
            <stop stop-color="#A5A6D1" offset="85%"></stop>
            <stop stop-color="#BDBBDD" offset="100%"></stop>
        </linearGradient>
        <linearGradient x1="0%" y1="49.9927134%" x2="100%" y2="49.9927134%" id="linearGradient-6">
            <stop stop-color="#5963AC" offset="0%"></stop>
            <stop stop-color="#5E67AE" offset="18%"></stop>
            <stop stop-color="#6C74B5" offset="39%"></stop>
            <stop stop-color="#8489C1" offset="62%"></stop>
            <stop stop-color="#A5A6D1" offset="85%"></stop>
            <stop stop-color="#BDBBDD" offset="100%"></stop>
        </linearGradient>
        <linearGradient x1="33.602516%" y1="49.9971439%" x2="133.604796%" y2="49.9971439%" id="linearGradient-7">
            <stop stop-color="#C1BDDE" offset="0%"></stop>
            <stop stop-color="#C6C2E0" offset="29%"></stop>
            <stop stop-color="#D3D0E8" offset="64%"></stop>
            <stop stop-color="#E8E7F3" offset="100%"></stop>
        </linearGradient>
        <linearGradient x1="-0.00400930158%" y1="49.9166774%" x2="100.004009%" y2="49.9166774%" id="linearGradient-8">
            <stop stop-color="#C1BDDE" offset="0%"></stop>
            <stop stop-color="#C6C2E0" offset="29%"></stop>
            <stop stop-color="#D3D0E8" offset="64%"></stop>
            <stop stop-color="#E8E7F3" offset="100%"></stop>
        </linearGradient>
        <linearGradient x1="33.6062236%" y1="50.0003245%" x2="133.611437%" y2="50.0003245%" id="linearGradient-9">
            <stop stop-color="#C1BDDE" offset="0%"></stop>
            <stop stop-color="#C6C2E0" offset="29%"></stop>
            <stop stop-color="#D3D0E8" offset="64%"></stop>
            <stop stop-color="#E8E7F3" offset="100%"></stop>
        </linearGradient>
        <linearGradient x1="0.00801796023%" y1="49.9859296%" x2="99.991982%" y2="49.9859296%" id="linearGradient-10">
            <stop stop-color="#C1BDDE" offset="0%"></stop>
            <stop stop-color="#C6C2E0" offset="29%"></stop>
            <stop stop-color="#D3D0E8" offset="64%"></stop>
            <stop stop-color="#E8E7F3" offset="100%"></stop>
        </linearGradient>
        <linearGradient x1="-6.70086277e-14%" y1="49.9735302%" x2="100%" y2="49.9735302%" id="linearGradient-11">
            <stop stop-color="#5963AC" offset="13%"></stop>
            <stop stop-color="#5E7DB4" offset="26%"></stop>
            <stop stop-color="#659EBF" offset="47%"></stop>
            <stop stop-color="#69B6C6" offset="66%"></stop>
            <stop stop-color="#6CC4CA" offset="85%"></stop>
            <stop stop-color="#6DC9CC" offset="100%"></stop>
        </linearGradient>
        <linearGradient x1="0.485087719%" y1="65.3618359%" x2="100.967544%" y2="17.6044018%" id="linearGradient-12">
            <stop stop-color="#5963AC" offset="0%"></stop>
            <stop stop-color="#5E67AE" offset="18%"></stop>
            <stop stop-color="#6C74B5" offset="39%"></stop>
            <stop stop-color="#8489C1" offset="62%"></stop>
            <stop stop-color="#A5A6D1" offset="85%"></stop>
            <stop stop-color="#BDBBDD" offset="100%"></stop>
        </linearGradient>
        <radialGradient cx="23.4932709%" cy="34.0020633%" fx="23.4932709%" fy="34.0020633%" r="51.1346158%" gradientTransform="translate(0.234933,0.340021),scale(0.933469,1.000000),translate(-0.234933,-0.340021)" id="radialGradient-13">
            <stop stop-color="#2F2E7A" offset="0%"></stop>
            <stop stop-color="#211C58" offset="100%"></stop>
        </radialGradient>
        <linearGradient x1="-0.0254388196%" y1="49.9982527%" x2="100%" y2="49.9982527%" id="linearGradient-14">
            <stop stop-color="#5963AC" offset="0%"></stop>
            <stop stop-color="#5E67AE" offset="18%"></stop>
            <stop stop-color="#6C74B5" offset="39%"></stop>
            <stop stop-color="#8489C1" offset="62%"></stop>
            <stop stop-color="#A5A6D1" offset="85%"></stop>
            <stop stop-color="#BDBBDD" offset="100%"></stop>
        </linearGradient>
        <linearGradient x1="0.499342009%" y1="65.2978137%" x2="100.996491%" y2="17.5364927%" id="linearGradient-15">
            <stop stop-color="#C1BDDE" offset="0%"></stop>
            <stop stop-color="#C6C2E0" offset="29%"></stop>
            <stop stop-color="#D3D0E8" offset="64%"></stop>
            <stop stop-color="#E8E7F3" offset="100%"></stop>
        </linearGradient>
        <linearGradient x1="0.00582630703%" y1="49.9957489%" x2="99.9941737%" y2="49.9957489%" id="linearGradient-16">
            <stop stop-color="#6DC9CC" offset="0%"></stop>
            <stop stop-color="#6CC4CA" offset="18%"></stop>
            <stop stop-color="#69B6C6" offset="39%"></stop>
            <stop stop-color="#659EBF" offset="61%"></stop>
            <stop stop-color="#5E7DB4" offset="84%"></stop>
            <stop stop-color="#5963AC" offset="100%"></stop>
        </linearGradient>
        <linearGradient x1="0%" y1="49.9942924%" x2="99.9939239%" y2="49.9942924%" id="linearGradient-17">
            <stop stop-color="#6DC9CC" offset="0%"></stop>
            <stop stop-color="#6CC4CA" offset="18%"></stop>
            <stop stop-color="#69B6C6" offset="39%"></stop>
            <stop stop-color="#659EBF" offset="61%"></stop>
            <stop stop-color="#5E7DB4" offset="84%"></stop>
            <stop stop-color="#5963AC" offset="100%"></stop>
        </linearGradient>
    </defs>
    <g id="Page-1" stroke="none" stroke-width="1" fill="none" fill-rule="evenodd">
        <g id="Artboard" transform="translate(-180.000000, -435.000000)" fill-rule="nonzero">
            <g id="SQUARE-02" transform="translate(-100.000000, -57.000000)">
                <g id="Group-3" transform="translate(280.000000, 492.000000)">
                    <path d="M487.366766,252.130878 C486.954549,252.126364 486.576503,251.901799 486.376653,251.542735 C486.056527,250.982368 486.2411,250.270111 486.793543,249.933989 L718.236679,112.031622 C718.499228,111.872394 718.816264,111.828536 719.112454,111.91047 C719.408643,111.992403 719.657544,112.192814 719.800014,112.46408 C720.130118,113.023088 719.943638,113.742701 719.383125,114.072826 L487.957359,251.975193 C487.780531,252.084673 487.574827,252.138898 487.366766,252.130878 L487.366766,252.130878 Z" id="Path" fill="url(#linearGradient-1)"></path>
                    <path d="M324.866725,233.604356 C324.507237,233.606558 324.174793,233.414541 323.998206,233.102704 C323.733631,232.628686 323.895191,232.031093 324.362984,231.753433 L523.688261,116.684875 C524.167931,116.40782 524.782313,116.57046 525.060522,117.04814 C525.33873,117.525821 525.175414,118.137654 524.695743,118.414709 L325.370467,233.465969 C325.217078,233.55395 325.043716,233.601576 324.866725,233.604356 Z" id="Path" fill="url(#linearGradient-2)"></path>
                    <path d="M323.477094,479.275382 C319.820282,479.289595 316.224703,478.340719 313.054857,476.524946 L178.277966,399.028382 C177.006739,398.304445 176.222313,396.957851 176.222313,395.499521 C176.222313,394.041191 177.006739,392.694597 178.277966,391.970659 L421.463489,252.130878 L421.93249,252.407652 L566.610505,335.595369 C567.865831,336.300599 568.647386,337.619773 568.660212,339.055037 C568.66768,340.518317 567.884848,341.87268 566.610505,342.601197 L333.847219,476.455753 C330.69751,478.282363 327.121897,479.254569 323.477094,479.275382 L323.477094,479.275382 Z M421.532971,254.396961 L179.285449,393.596703 C178.602648,393.989073 178.181985,394.714465 178.181985,395.499521 C178.181985,396.284576 178.602648,397.009969 179.285449,397.402338 L314.06234,474.898902 C319.897399,478.2374 327.074159,478.2374 332.909218,474.898902 L565.672504,341.027048 C566.355306,340.634678 566.775969,339.909286 566.775969,339.12423 C566.775969,338.339175 566.355306,337.613783 565.672504,337.221413 L421.532971,254.396961 Z" id="Shape" fill="url(#linearGradient-3)"></path>
                    <path d="M421.845638,195.305831 L389.397741,3.67481927 L392.0033,2.5677255 L388.094961,0.336239628 L388.094961,0.336239628 C387.130983,-0.178031725 385.956472,-0.0973669252 385.072513,0.543819709 L125.906227,149.620915 C123.637211,151.006271 122.3058,153.5122 122.432148,156.159687 L155.175342,349.330251 C155.250584,350.177962 155.764068,350.925326 156.530233,351.302262 L156.530233,351.302262 L160.36909,353.516449 L161.029165,349.935693 L160.80335,349.935693 L418.475781,201.792708 C420.67713,200.380703 421.960145,197.910936 421.845638,195.305831 L421.845638,195.305831 Z" id="Path" fill="url(#linearGradient-4)"></path>
                    <path d="M127.295859,154.862312 L123.022742,152.976793 C122.529029,153.961271 122.324319,155.064515 122.432148,156.159687 L155.175342,349.330251 C155.250584,350.177962 155.764068,350.925326 156.530233,351.302262 L156.530233,351.302262 L160.36909,353.516449 L161.029165,349.935693 L160.80335,349.935693 L173.848516,342.445512 L127.295859,154.862312 Z" id="Path" fill="url(#linearGradient-5)"></path>
                    <path d="M422.540454,204.197178 L163.304686,353.239676 C161.307091,354.381366 159.587422,353.72403 159.240014,351.665527 L126.548932,158.494963 C126.394269,155.862533 127.684023,153.353311 129.918788,151.938892 L389.137185,2.89639396 C391.152151,1.73740518 392.854449,2.41204044 393.201857,4.47054291 L425.91031,197.675703 C426.033814,200.292133 424.750118,202.77639 422.540454,204.197178 L422.540454,204.197178 Z" id="Path" fill="#282567"></path>
                    <g id="Group" opacity="0.51" transform="translate(135.489077, 15.207153)" fill="#464099">
                        <polygon id="Path" points="250.260881 0.00565893654 0.38775673 143.685672 31.3765405 325.595016 281.093331 182.036092"></polygon>
                    </g>
                    <path d="M585.492124,295.636203 L571.335253,303.005296 L429.488611,221.443623 C426.516698,220.100128 423.080815,220.241358 420.230191,221.824186 L175.568185,362.494288 C173.223182,361.179614 162.540389,356.076604 162.540389,356.076604 L167.751507,369.517414 L167.751507,369.517414 C168.027821,370.201094 168.53869,370.76501 169.19325,371.108861 L318.578643,457.012418 C321.550556,458.355913 324.986439,458.214683 327.837063,456.631855 L578.231299,312.65777 C579.168159,312.189705 579.907089,311.404782 580.315747,310.443583 L580.315747,310.443583 L585.492124,295.636203 Z" id="Path" fill="url(#linearGradient-6)"></path>
                    <path d="M583.303454,298.006076 L326.707987,445.491724 C323.785905,447.108636 320.266993,447.249835 317.223752,445.872287 L164.121095,357.841034 C161.68924,356.439869 161.984536,354.000803 164.79854,352.392057 L421.376637,204.854515 C424.298241,203.240195 427.813289,203.092739 430.860872,204.456653 L583.9809,292.505204 C586.412755,293.906369 586.117458,296.276242 583.303454,298.006076 Z" id="Path" fill="url(#linearGradient-7)"></path>
                    <path d="M249.236028,413.576286 L249.236028,410.773955 C249.236028,410.497182 249.409732,410.376093 249.600806,410.497182 L259.536672,416.205634 C259.755829,416.370537 259.889599,416.62428 259.90145,416.897568 L259.90145,419.699899 C259.90145,419.959374 259.727746,420.080462 259.536672,419.976672 L249.600806,414.26822 C249.381649,414.103317 249.247879,413.849574 249.236028,413.576286 L249.236028,413.576286 Z" id="Path" fill="#2C469C"></path>
                    <path d="M264.157197,422.104368 L264.157197,419.302037 C264.157197,419.042562 264.31353,418.921473 264.521975,419.025263 L274.44047,424.733716 C274.659628,424.898619 274.793398,425.152362 274.805249,425.425649 L274.805249,428.22798 C274.805249,428.504754 274.631545,428.608544 274.44047,428.504754 L264.521975,422.796302 C264.294498,422.638568 264.158397,422.380404 264.157197,422.104368 Z" id="Path" fill="#2C469C"></path>
                    <path d="M204.073002,349.589726 L417.242483,227.082882 C418.668598,226.271088 420.419523,226.271088 421.845638,227.082882 L497.771632,270.830384 C498.278418,271.120422 498.590863,271.65811 498.590863,272.240198 C498.590863,272.822287 498.278418,273.359975 497.771632,273.650013 L284.636892,396.191454 C283.221994,397.021775 281.466005,397.021775 280.051108,396.191454 L204.073002,352.426654 C203.607535,352.103104 203.330181,351.573478 203.330181,351.00819 C203.330181,350.442902 203.607535,349.913277 204.073002,349.589726 Z" id="Path" fill="#AFAFD7"></path>
                    <path d="M204.073002,352.426654 L204.8373,352.859113 L417.294594,230.698235 C418.720709,229.886441 420.471634,229.886441 421.897749,230.698235 L497.059446,273.944085 L497.823743,273.494328 C498.330529,273.20429 498.642975,272.666602 498.642975,272.084513 C498.642975,271.502425 498.330529,270.964737 497.823743,270.674699 L421.845638,227.082882 C420.419523,226.271088 418.668598,226.271088 417.242483,227.082882 L204.073002,349.589726 C203.607535,349.913277 203.330181,350.442902 203.330181,351.00819 C203.330181,351.573478 203.607535,352.103104 204.073002,352.426654 Z" id="Path" fill="#9296CA"></path>
                    <polygon id="Path" fill="#282567" points="427.577868 238.084626 242.357352 344.573208 234.123785 339.833462 419.344301 233.344881"></polygon>
                    <polygon id="Path" fill="#282567" points="447.762266 249.691812 274.040951 349.572428 265.790014 344.832683 439.528699 244.952067"></polygon>
                    <polygon id="Path" fill="#282567" points="460.911655 257.251187 256.35789 374.862601 248.124323 370.122856 452.678088 252.511442"></polygon>
                    <polygon id="Path" fill="#282567" points="474.061044 264.810561 269.524649 382.421976 261.273711 377.682231 465.827477 260.070816"></polygon>
                    <polygon id="Path" fill="#282567" points="487.210432 272.369936 282.674037 389.98135 274.4231 385.241605 478.976865 267.630191"></polygon>
                    <polygon id="Path" fill="#282567" points="231.153447 351.00819 222.91988 355.747935 214.686313 351.00819 222.91988 346.268445"></polygon>
                    <polygon id="Path" fill="#282567" points="260.214117 357.529664 243.121649 367.355122 234.888082 362.615376 251.98055 352.789919"></polygon>
                    <path d="M425.45868,379.308275 L482.954686,346.268445 C485.195466,344.971069 485.195466,342.808777 482.954686,341.580595 L443.628112,318.971664 C441.074809,317.674727 438.052071,317.674727 435.498768,318.971664 L378.002762,352.028792 C375.761981,353.326168 375.761981,355.48846 378.002762,356.716642 L417.329335,379.308275 C419.882638,380.605212 422.905377,380.605212 425.45868,379.308275 L425.45868,379.308275 Z" id="Path" fill="url(#linearGradient-8)"></path>
                    <path d="M378.002762,353.897013 L435.498768,320.839885 C438.052071,319.542948 441.074809,319.542948 443.628112,320.839885 L482.954686,343.448815 C483.548404,343.764626 484.037211,344.245396 484.361687,344.832683 C484.952281,343.690992 484.500651,342.428213 482.954686,341.5287 L443.628112,318.919769 C441.074809,317.622832 438.052071,317.622832 435.498768,318.919769 L378.002762,351.976897 C376.456797,352.876411 376.005167,354.13919 376.59576,355.28088 C376.920237,354.693593 377.409044,354.212823 378.002762,353.897013 Z" id="Path" fill="#9296CA"></path>
                    <g id="Group" opacity="0.11" transform="translate(0.000000, 109.454169)">
                        <g id="Path">
                            <path d="M421.619823,95.1408705 L165.041726,242.626518 C162.118617,244.257531 158.590399,244.405269 155.54012,243.02438 L2.42009288,154.993127 C-0.0117623426,153.591962 0.300904758,151.135597 3.09753827,149.526852 L259.658265,1.98930911 C262.586494,0.37208597 266.11068,0.230933361 269.15987,1.60874563 L422.279898,89.6399984 C424.677012,91.0411639 424.433827,93.4110365 421.619823,95.1408705 Z" fill="url(#linearGradient-9)"></path>
                            <path d="M164.277429,121.555436 L221.756064,88.4983079 C224.014215,87.2009324 224.014215,85.0386399 221.756064,83.8104578 L182.446861,61.2015273 C179.889547,59.92132 176.874831,59.92132 174.317517,61.2015273 L116.821511,94.2586552 C114.56336,95.5560307 114.56336,97.7183232 116.821511,98.9465054 L156.130714,121.555436 C158.694071,122.835945 161.714071,122.835945 164.277429,121.555436 L164.277429,121.555436 Z" fill="url(#linearGradient-10)"></path>
                            <path d="M116.821511,96.1787709 L174.317517,63.121643 C176.87082,61.8247059 179.893558,61.8247059 182.446861,63.121643 L221.756064,85.7305735 C222.350467,86.0514879 222.843609,86.5306063 223.180436,87.1144407 C223.77103,85.9727503 223.319399,84.7099715 221.756064,83.8104578 L182.446861,61.2015273 C179.889547,59.92132 176.874831,59.92132 174.317517,61.2015273 L116.821511,94.2586552 C115.258175,95.1581689 114.806545,96.4382461 115.397139,97.5626382 C115.733966,96.9788037 116.227108,96.4996853 116.821511,96.1787709 L116.821511,96.1787709 Z" fill="#9296CA"></path>
                            <path d="M91.5475869,173.208279 L304.82129,50.6149431 C306.247405,49.8031495 307.99833,49.8031495 309.424445,50.6149431 L385.350439,94.3624452 C385.857225,94.6524833 386.16967,95.1901712 386.16967,95.77226 C386.16967,96.3543487 385.857225,96.8920366 385.350439,97.1820747 L172.163588,219.688919 C170.743788,220.501141 168.997604,220.501141 167.577804,219.688919 L91.5475869,176.027909 C91.0408013,175.737871 90.7283554,175.200183 90.7283554,174.618094 C90.7283554,174.036005 91.0408013,173.498317 91.5475869,173.208279 Z" fill="#AFAFD7"></path>
                            <path d="M91.5475869,176.027909 L92.3118843,176.477666 L304.82129,54.3167879 C306.24257,53.4870671 308.003164,53.4870671 309.424445,54.3167879 L384.586142,97.5626382 L385.350439,97.1128813 C385.857225,96.8228433 386.16967,96.2851554 386.16967,95.7030666 C386.16967,95.1209778 385.857225,94.5832899 385.350439,94.2932519 L309.424445,50.5457498 C307.99833,49.7339561 306.247405,49.7339561 304.82129,50.5457498 L91.5475869,173.208279 C91.0408013,173.498317 90.7283554,174.036005 90.7283554,174.618094 C90.7283554,175.200183 91.0408013,175.737871 91.5475869,176.027909 Z" fill="#9296CA"></path>
                            <polygon fill="#282567" points="365.426597 91.3698324 179.667598 198.169784 187.015275 202.407877 372.791644 95.6079257"></polygon>
                            <polygon fill="#282567" points="345.850162 80.1259113 169.297473 181.632571 176.645149 185.870664 353.215209 84.3467063"></polygon>
                            <polygon fill="#282567" points="156.113343 189.226542 139.611468 198.706033 146.976516 202.926828 163.46102 193.447337"></polygon>
                            <polygon fill="#282567" points="170.669734 203.359286 159.187903 209.949954 166.53558 214.188047 178.034781 207.580081"></polygon>
                            <polygon fill="#282567" points="333.586663 73.0681886 127.34797 191.64831 134.713017 195.886403 340.951711 77.3062819"></polygon>
                            <polygon fill="#282567" points="321.323165 66.0277642 115.084471 184.607886 122.449519 188.828681 328.688212 70.2485591"></polygon>
                            <polygon fill="#282567" points="309.059666 58.9700414 102.820973 177.550163 110.18602 181.770958 316.424714 63.2081347"></polygon>
                        </g>
                    </g>
                    <path d="M246.456765,261.126015 C245.296006,261.132712 244.153185,260.840743 243.139019,260.278396 L219.341579,246.612708 C218.351199,246.140199 217.689083,245.17752 217.60454,244.08715 C217.644118,243.174494 218.175506,242.35426 218.994171,241.942156 L333.43033,176.208463 C335.348447,175.300411 337.590151,175.377836 339.440486,176.416043 L363.220556,190.081732 C364.215823,190.548543 364.880152,191.514441 364.957596,192.60729 C364.917875,193.515098 364.394744,194.332809 363.585335,194.752284 L249.149176,260.485976 C248.319467,260.919904 247.393827,261.139946 246.456765,261.126015 Z M336.088,177.609629 C335.529414,177.593889 334.975258,177.712568 334.472554,177.955596 L220.036395,243.689288 C219.793209,243.827675 219.688987,243.948763 219.688987,244.017957 C219.688987,244.08715 219.81058,244.39852 220.383803,244.727189 L244.163873,258.410176 C245.369994,259.061523 246.808042,259.131536 248.072211,258.600457 L362.50837,192.866765 C362.734185,192.728378 362.838408,192.60729 362.838408,192.538096 C362.838408,192.468903 362.716815,192.157533 362.160962,191.828865 L338.380892,178.145878 C337.672255,177.782755 336.884872,177.598606 336.088,177.609629 L336.088,177.609629 Z" id="Shape" fill="url(#linearGradient-11)"></path>
                    <path d="M317.102159,138.221309 C313.936061,140.100147 311.101638,142.48451 308.712259,145.279031 C305.23818,134.03511 294.468535,130.540846 281.788147,137.840745 C271.36591,143.860567 262.142231,155.744527 257.313261,168.32042 C255.429114,168.443242 253.606697,169.038277 252.015291,170.050254 C244.698029,174.801265 240.096798,182.744506 239.6302,191.431003 C239.6302,191.603986 239.6302,191.759671 239.6302,191.915356 C237.363467,192.137461 235.177359,192.871028 233.237895,194.06035 C224.552697,199.094167 217.378724,211.35869 217.378724,221.409026 C217.378724,231.459362 224.483216,235.559068 233.237895,230.525251 L317.084789,182.332076 C327.645989,176.24306 336.192223,161.470278 336.192223,149.309545 C336.192223,137.148811 327.663359,132.149591 317.102159,138.221309 Z" id="Path" fill="url(#linearGradient-12)"></path>
                    <path d="M317.102159,138.221309 C315.304489,139.280107 313.617042,140.514366 312.064745,141.905855 L302.684732,136.508773 L302.684732,136.508773 C297.473613,132.910718 290.073825,133.049105 281.840258,137.840745 C271.418022,143.860567 262.194342,155.744527 257.365373,168.32042 C255.481226,168.443242 253.658808,169.038277 252.067402,170.050254 C244.75014,174.801265 240.148909,182.744506 239.682311,191.431003 C239.682311,191.603986 239.682311,191.759671 239.682311,191.915356 C237.415578,192.137461 235.229471,192.871028 233.290006,194.06035 C224.604809,199.094167 217.430836,211.35869 217.430836,221.409026 C217.430836,226.408246 219.167875,229.919809 222.01662,231.58045 L222.01662,231.58045 L222.01662,231.58045 L222.01662,231.58045 L244.980281,244.848277 L250.000325,220.838181 L317.067418,182.280181 C327.628618,176.191165 336.174852,161.418383 336.174852,149.25765 C336.174852,137.096916 327.663359,132.149591 317.102159,138.221309 Z" id="Path" fill="url(#radialGradient-13)"></path>
                    <path d="M353.996877,150.416638 L330.737919,136.95853 L330.737919,136.95853 C327.26384,134.900027 322.43487,135.228696 317.102159,138.221309 C315.304489,139.280107 313.617042,140.514366 312.064745,141.905855 L302.684732,136.508773 L302.684732,136.508773 C297.473613,132.910718 290.073825,133.049105 281.840258,137.840745 C271.418022,143.860567 262.194342,155.744527 257.365373,168.32042 C255.481226,168.443242 253.658808,169.038277 252.067402,170.050254 C244.75014,174.801265 240.148909,182.744506 239.682311,191.431003 C239.682311,191.603986 239.682311,191.759671 239.682311,191.915356 C237.415578,192.137461 235.229471,192.871028 233.290006,194.06035 C224.604809,199.094167 217.430836,211.35869 217.430836,221.409026 C217.430836,226.408246 219.167875,229.919809 222.01662,231.58045 L222.01662,231.58045 L222.01662,231.58045 L222.01662,231.58045 L244.980281,244.848277 L250.000325,220.838181 L317.067418,182.280181 C325.631023,177.350154 332.874477,166.711675 335.323703,156.332671 L353.996877,150.416638 Z" id="Path" fill="url(#linearGradient-14)"></path>
                    <path d="M340.135302,151.54103 C336.965871,153.415208 334.130725,155.80018 331.745402,158.598753 C328.271323,147.354832 317.501678,143.860567 304.82129,151.160467 C294.399054,157.180289 285.175374,169.046951 280.346404,181.622844 C278.493567,181.76696 276.704386,182.36088 275.135286,183.352678 C267.809303,188.097847 263.200571,196.042894 262.732824,204.733426 C262.732824,204.90641 262.732824,205.062095 262.732824,205.21778 C260.47437,205.441301 258.295473,206.168528 256.35789,207.345476 C247.672692,212.379293 240.498719,224.643816 240.498719,234.694151 C240.498719,244.744487 247.58584,248.861492 256.35789,243.827675 L340.187413,195.617201 C350.748613,189.545484 359.294847,174.755403 359.294847,162.59467 C359.294847,150.433937 350.696502,145.469313 340.135302,151.54103 Z" id="Path" fill="url(#linearGradient-15)"></path>
                    <path d="M570.34514,145.036855 C570.16815,145.034075 569.994787,144.986449 569.841399,144.898468 L480.488089,93.5223977 C480.180235,93.3421676 479.99119,93.0131109 479.99119,92.6574807 C479.99119,92.3018506 480.180235,91.9727939 480.488089,91.7925637 L569.841399,40.4164936 C570.148671,40.2438527 570.524239,40.2438527 570.831511,40.4164936 L660.202191,91.7925637 C660.510045,91.9727939 660.69909,92.3018506 660.69909,92.6574807 C660.69909,93.0131109 660.510045,93.3421676 660.202191,93.5223977 L570.848882,144.898468 C570.695493,144.986449 570.52213,145.034075 570.34514,145.036855 L570.34514,145.036855 Z M482.972056,92.6574807 L570.34514,142.822667 L657.718224,92.6574807 L570.34514,42.4922944 L482.972056,92.6574807 Z" id="Shape" fill="url(#linearGradient-16)"></path>
                    <path d="M765.015151,140.349004 C764.84373,140.345591 764.676137,140.297906 764.52878,140.210618 L675.175471,88.8345476 C674.864984,88.6560355 674.673149,88.3266575 674.671729,87.9696306 C674.672116,87.6168196 674.865088,87.2921171 675.175471,87.1220119 L764.52878,35.7459418 C764.830724,35.5541611 765.216948,35.5541611 765.518892,35.7459418 L854.872202,87.1220119 C855.189575,87.2950081 855.386923,87.6266238 855.386923,87.9869289 C855.386923,88.3472341 855.189575,88.6788497 854.872202,88.8518459 L765.518892,140.227916 C765.363893,140.30987 765.190624,140.35152 765.015151,140.349004 Z M677.642067,87.9696306 L765.015151,138.134817 L852.388235,87.9696306 L765.015151,37.8044443 L677.642067,87.9696306 Z" id="Shape" fill="url(#linearGradient-17)"></path>
                </g>
            </g>
        </g>
    </g>
</svg>