<?xml version="1.0" encoding="UTF-8"?>
<svg width="366px" height="370px" viewBox="0 0 366 370" version="1.1" xmlns="http://www.w3.org/2000/svg" xmlns:xlink="http://www.w3.org/1999/xlink">
    <!-- Generator: Sketch 53.1 (72631) - https://sketchapp.com -->
    <title>left-corner-design</title>
    <desc>Created with Sketch.</desc>
    <g id="Page-1" stroke="none" stroke-width="1" fill="none" fill-rule="evenodd">
        <g id="Artboard">
            <g id="SQUARE-02" transform="translate(-100.000000, -57.000000)">
                <g id="Group">
                    <g id="left-corner-design" transform="translate(0.817459, 0.304510)">
                        <polygon id="Path" fill="#78001B" fill-rule="nonzero" points="98.8727091 170.429801 98.8727091 56.8628971 98.9723993 56.8231745 197.685604 113.606626"></polygon>
                        <polygon id="Path" fill="#F5340B" fill-rule="nonzero" points="98.8727091 170.608553 98.8727091 170.429801 197.685604 113.606626 197.765356 113.66621 197.765356 227.47145"></polygon>
                        <polygon id="Path" fill="#1DCDC3" fill-rule="nonzero" points="98.8727091 398.080002 98.8727091 284.274763 197.765356 341.157521 197.765356 341.217105"></polygon>
                        <polygon id="Path" fill="#0C2E3A" fill-rule="nonzero" points="98.8727091 284.274763 98.8727091 284.175456 197.62579 227.392004 197.765356 227.47145 197.765356 341.157521"></polygon>
                        <polygon id="Path" fill="#0C2E3A" fill-rule="nonzero" points="131.670775 407.414812 131.670775 407.394951 164.927415 388.268521 164.967291 388.308243 164.967291 426.561104"></polygon>
                        <polygon id="Path" fill="#0C2E3A" fill-rule="nonzero" points="98.8727091 284.175456 98.8727091 170.608553 197.62579 227.392004"></polygon>
                        <polygon id="Path" fill="#F5340B" fill-rule="nonzero" points="98.9723993 56.8231745 197.765356 0 197.765356 113.586765 197.685604 113.606626"></polygon>
                        <polygon id="Path" fill="#F5340B" fill-rule="nonzero" points="98.8727091 170.429801 98.8727091 56.8628971 98.9723993 56.8231745 197.685604 113.606626"></polygon>
                        <polygon id="Path" points="98.8727091 170.608553 98.8727091 170.429801 197.685604 113.606626 197.765356 113.66621 197.765356 227.47145"></polygon>
                        <polygon id="Path" fill="#F5340B" fill-rule="nonzero" points="197.765356 227.47145 197.765356 113.66621 296.638065 170.548969 296.638065 170.608553"></polygon>
                        <polygon id="Path" fill="#E3651D" fill-rule="nonzero" points="197.765356 113.66621 197.765356 113.586765 296.518437 56.8033132 296.638065 56.8628971 296.638065 170.548969"></polygon>
                        <polygon id="Path" fill="#FFA73B" fill-rule="nonzero" points="98.8727091 170.608553 98.8727091 170.429801 197.685604 113.606626 197.765356 113.66621 197.765356 227.47145"></polygon>
                        <polygon id="Path" fill="#FFA73B" fill-rule="nonzero" points="296.638065 170.429801 296.638065 56.8628971 296.737756 56.8231745 395.45096 113.606626"></polygon>
                        <polygon id="Path" fill="#FFD497" fill-rule="nonzero" points="424.680118 136.685455 424.680118 90.5873816 424.719994 90.5675203 464.795442 113.626488"></polygon>
                        <polygon id="Path" fill="#FFD497" fill-rule="nonzero" points="296.638065 398.080002 296.638065 284.274763 395.530713 341.157521 395.530713 341.217105"></polygon>
                        <polygon id="Path" fill="#FF823B" fill-rule="nonzero" points="197.865046 227.431727 296.638065 170.608553 296.638065 284.175456 296.578251 284.215179"></polygon>
                        <polygon id="Path" fill="#FF823B" fill-rule="nonzero" points="197.765356 341.038353 197.765356 227.47145 197.865046 227.431727 296.578251 284.215179"></polygon>
                        <polygon id="Path" fill="#FFA73B" fill-rule="nonzero" points="197.765356 341.217105 197.765356 341.038353 296.578251 284.215179 296.638065 284.274763 296.638065 398.080002"></polygon>
                        <polygon id="Path" fill="#FFA73B" fill-rule="nonzero" points="197.765356 227.47145 197.765356 113.66621 296.638065 170.548969 296.638065 170.608553"></polygon>
                        <polygon id="Path" fill="#FFA73B" fill-rule="nonzero" points="197.765356 113.66621 197.765356 113.586765 296.518437 56.8033132 296.638065 56.8628971 296.638065 170.548969"></polygon>
                        <polygon id="Path" fill="#E3651D" fill-rule="nonzero" points="197.765356 113.586765 197.765356 0 296.518437 56.8033132"></polygon>
                        <polygon id="Path" fill="#78001B" fill-rule="nonzero" points="98.9723993 56.8231745 197.765356 0 197.765356 113.586765 197.685604 113.606626"></polygon>
                        <polygon id="Path" fill="#FFA73B" fill-rule="nonzero" points="98.8727091 170.608553 98.8727091 170.429801 197.685604 113.606626 197.765356 113.66621 197.765356 227.47145"></polygon>
                    </g>
                </g>
            </g>
        </g>
    </g>
</svg>