<svg xmlns="http://www.w3.org/2000/svg" viewBox="0 0 105.1 60.68"><defs><style>.cls-1{fill:#f37b6d;}.cls-2{fill:#ee4d87;}.cls-3{fill:#4ec2c8;}.cls-4{fill:#00abb1;}.cls-5{fill:#40beb3;}</style></defs><title>Asset 3</title><g id="Layer_2" data-name="Layer 2"><g id="BACKGROUND_2" data-name="BACKGROUND 2"><polygon class="cls-1" points="52.55 15.17 52.55 45.51 78.83 30.34 52.55 15.17"/><polygon class="cls-2" points="78.83 0 52.55 15.17 78.83 30.34 78.83 0"/><polygon class="cls-3" points="105.1 15.17 78.83 0 78.83 30.34 105.1 15.17"/><polygon class="cls-4" points="78.83 30.34 105.1 45.51 105.1 15.17 78.83 30.34"/><polygon class="cls-4" points="52.55 45.51 78.83 60.68 78.83 30.34 52.55 45.51"/><polygon class="cls-5" points="78.83 60.68 105.1 45.51 78.83 30.34 78.83 60.68"/><polygon class="cls-2" points="52.55 45.51 52.55 15.17 26.27 30.34 52.55 45.51"/><polygon class="cls-1" points="26.27 60.68 52.55 45.51 26.27 30.34 26.27 60.68"/><polygon class="cls-3" points="0 45.51 26.27 60.68 26.27 30.34 0 45.51"/><polygon class="cls-4" points="26.27 30.34 0 15.17 0 45.51 26.27 30.34"/><polygon class="cls-4" points="52.55 15.17 26.27 0 26.27 30.34 52.55 15.17"/><polygon class="cls-5" points="26.27 0 0 15.17 26.27 30.34 26.27 0"/></g></g></svg>