<?xml version="1.0" encoding="UTF-8"?>
<svg width="394px" height="521px" viewBox="0 0 394 521" version="1.1" xmlns="http://www.w3.org/2000/svg" xmlns:xlink="http://www.w3.org/1999/xlink">
    <!-- Generator: Sketch 53.1 (72631) - https://sketchapp.com -->
    <title>right-corner-design</title>
    <desc>Created with Sketch.</desc>
    <g id="Page-1" stroke="none" stroke-width="1" fill="none" fill-rule="evenodd">
        <g id="Artboard" transform="translate(-1526.000000, -559.000000)">
            <g id="SQUARE-02" transform="translate(-100.000000, -57.000000)">
                <g id="Group">
                    <g id="right-corner-design" transform="translate(1626.000000, 449.000000)">
                        <polygon id="Path" fill="#78001B" fill-rule="nonzero" points="395.431022 404.376034 395.431022 517.942938 395.331332 517.98266 296.618127 461.199208"></polygon>
                        <polygon id="Path" fill="#F5340B" fill-rule="nonzero" points="395.431022 404.197282 395.431022 404.376034 296.618127 461.199208 296.538375 461.139624 296.538375 347.334385"></polygon>
                        <polygon id="Path" fill="#1DCDC3" fill-rule="nonzero" points="395.431022 176.745694 395.431022 290.550933 296.558313 233.648313 296.558313 233.608591"></polygon>
                        <polygon id="Path" fill="#0C2E3A" fill-rule="nonzero" points="395.431022 290.550933 395.431022 290.630378 296.677942 347.41383 296.558313 347.334385 296.558313 233.648313"></polygon>
                        <polygon id="Path" fill="#0C2E3A" fill-rule="nonzero" points="395.431022 290.630378 395.431022 404.197282 296.677942 347.41383"></polygon>
                        <polygon id="Path" fill="#78001B" fill-rule="nonzero" points="395.431022 517.942938 395.431022 631.748177 296.558313 574.865419 296.558313 574.805835"></polygon>
                        <polygon id="Path" fill="#78001B" fill-rule="nonzero" points="395.431022 631.748177 395.431022 631.847484 296.677942 688.611074 296.558313 688.55149 296.558313 574.865419"></polygon>
                        <polygon id="Path" fill="#00A6A6" fill-rule="nonzero" points="395.431022 631.847484 395.431022 745.414387 296.677942 688.611074"></polygon>
                        <polygon id="Path" fill="#F5340B" fill-rule="nonzero" points="395.331332 517.98266 296.538375 574.805835 296.538375 461.238931 296.618127 461.199208"></polygon>
                        <polygon id="Path" fill="#F5340B" fill-rule="nonzero" points="395.431022 404.376034 395.431022 517.942938 395.331332 517.98266 296.618127 461.199208"></polygon>
                        <polygon id="Path" points="395.431022 404.197282 395.431022 404.376034 296.618127 461.199208 296.538375 461.139624 296.538375 347.334385"></polygon>
                        <polygon id="Path" fill="#F5340B" fill-rule="nonzero" points="296.538375 347.334385 296.538375 461.139624 197.665666 404.256866 197.665666 404.197282"></polygon>
                        <polygon id="Path" fill="#E3651D" fill-rule="nonzero" points="296.538375 461.139624 296.538375 461.238931 197.785294 518.022383 197.665666 517.942938 197.665666 404.256866"></polygon>
                        <polygon id="Path" fill="#FFA73B" fill-rule="nonzero" points="395.431022 404.197282 395.431022 404.376034 296.618127 461.199208 296.538375 461.139624 296.538375 347.334385"></polygon>
                        <polygon id="Path" fill="#FFD497" fill-rule="nonzero" points="197.665666 176.745694 197.665666 290.550933 98.792957 233.648313 98.792957 233.608591"></polygon>
                        <polygon id="Path" fill="#FF823B" fill-rule="nonzero" points="296.458623 347.393969 197.665666 404.197282 197.665666 290.630378 197.745418 290.590656"></polygon>
                        <polygon id="Path" fill="#FF823B" fill-rule="nonzero" points="130.275112 347.393969 84.1385022 373.928664 84.1385022 320.879136 84.1783783 320.859274"></polygon>
                        <polygon id="Path" fill="#FFD497" fill-rule="nonzero" points="129.457653 185.504526 97.9356216 203.637892 97.9356216 167.410884 97.9555596 167.391022"></polygon>
                        <polygon id="Path" fill="#FF823B" fill-rule="nonzero" points="296.558313 233.767481 296.558313 347.334385 296.458623 347.393969 197.745418 290.590656"></polygon>
                        <polygon id="Path" fill="#FFA73B" fill-rule="nonzero" points="296.558313 233.608591 296.558313 233.767481 197.745418 290.590656 197.665666 290.550933 197.665666 176.745694"></polygon>
                        <polygon id="Path" fill="#FF7C4E" fill-rule="nonzero" points="197.665666 517.942938 197.665666 631.748177 98.792957 574.865419 98.792957 574.805835"></polygon>
                        <polygon id="Path" fill="#F54132" fill-rule="nonzero" points="296.458623 688.591213 197.665666 745.414387 197.665666 631.847484 197.745418 631.807761"></polygon>
                        <polygon id="Path" fill="#F54132" fill-rule="nonzero" points="98.792957 688.591213 1.13686838e-13 745.414387 1.13686838e-13 631.847484 0.0797521348 631.807761"></polygon>
                        <polygon id="Path" fill="#F54132" fill-rule="nonzero" points="296.558313 574.984586 296.558313 688.55149 296.458623 688.591213 197.745418 631.807761"></polygon>
                        <polygon id="Path" fill="#F54132" fill-rule="nonzero" points="296.558313 574.805835 296.558313 574.984586 197.745418 631.807761 197.665666 631.748177 197.665666 517.942938"></polygon>
                        <polygon id="Path" fill="#FFA73B" fill-rule="nonzero" points="296.538375 347.334385 296.538375 461.139624 197.665666 404.256866 197.665666 404.197282"></polygon>
                        <polygon id="Path" fill="#FFA73B" fill-rule="nonzero" points="296.538375 461.139624 296.538375 461.238931 197.785294 518.022383 197.665666 517.942938 197.665666 404.256866"></polygon>
                        <polygon id="Path" fill="#E3651D" fill-rule="nonzero" points="296.538375 461.238931 296.538375 574.805835 197.785294 518.022383"></polygon>
                        <polygon id="Path" fill="#78001B" fill-rule="nonzero" points="395.331332 517.98266 296.538375 574.805835 296.538375 461.238931 296.618127 461.199208"></polygon>
                        <polygon id="Path" fill="#FFA73B" fill-rule="nonzero" points="395.431022 404.197282 395.431022 404.376034 296.618127 461.199208 296.538375 461.139624 296.538375 347.334385"></polygon>
                    </g>
                </g>
            </g>
        </g>
    </g>
</svg>