<?xml version="1.0" encoding="UTF-8"?>
<svg width="95px" height="88px" viewBox="0 0 95 88" version="1.1" xmlns="http://www.w3.org/2000/svg" xmlns:xlink="http://www.w3.org/1999/xlink">
    <!-- Generator: Sketch 53.1 (72631) - https://sketchapp.com -->
    <title>Asset 4</title>
    <desc>Created with Sketch.</desc>
    <g id="Page-1" stroke="none" stroke-width="1" fill="none" fill-rule="evenodd">
        <g id="Asset-4" fill-rule="nonzero">
            <path d="M12.19,65.38 C12.5827183,66.8023944 13.624593,67.9555012 15,68.49 C16.7801257,69.0793349 18.6686673,69.2671646 20.53,69.04 L17.74,30 L10.15,30.84 L12.19,65.38 Z" id="Path" fill="#C87629"></path>
            <path d="M82,17.31 L55.34,3.41 C54.7606901,3.14206505 54.0985139,3.11592572 53.4998861,3.33736171 C52.9012584,3.55879769 52.4154936,4.00956718 52.15,4.59 L43.59,21 C42.9221898,22.1464324 43.3065975,23.6170153 44.45,24.29 L71.09,38.19 C72.2997577,38.7348916 73.7226811,38.2040832 74.28,37 L82.85,20.6 C83.5137156,19.4553708 83.1350961,17.9898906 82,17.31 Z" id="Path" fill="#FFFFFF"></path>
            <path d="M77.34,23.73 C76.2213732,25.8679427 73.5816791,26.6946643 71.4433587,25.5767597 C69.3050383,24.458855 68.4774252,21.8194403 69.5946075,19.6807424 C70.7117899,17.5420446 73.3509249,16.7135401 75.49,17.83 C76.5201036,18.3646388 77.294539,19.2879132 77.6417804,20.3953316 C77.9890217,21.50275 77.8804096,22.7029121 77.34,23.73 Z" id="Path" fill="#DA4643"></path>
            <polygon id="Path" fill="#36C5F3" points="54.13 13.75 54.34 15.9 55.86 17 55.74 9.98 53.1 12.23 52.96 13.66"></polygon>
            <polygon id="Path" fill="#36495E" points="55.86 17 54.34 15.9 54.13 13.75 52.96 13.66 53.1 12.23 42.65 21.17 42.99 24.68 56.11 31.35"></polygon>
            <polygon id="Path" fill="#36C5F3" points="61.3 21.51 61.65 22.57 62.54 22.98 63.27 23.78 63.16 18.05 59.65 19.8 60.29 21.22"></polygon>
            <polygon id="Path" fill="#36495E" points="63.27 23.78 62.54 22.98 61.65 22.57 61.3 21.51 60.29 21.22 59.65 19.8 46.13 26.55 50.37 28.79 63.5 35.46"></polygon>
            <path d="M85.36,16.68 L53.92,0.28 C53.2372382,-0.0355443826 52.4569493,-0.0663114596 51.7514618,0.194493749 C51.0459743,0.455298958 50.4733305,0.986219377 50.16,1.67 L40.06,21 C39.2745323,22.3489489 39.7203598,24.0787594 41.06,24.88 L72.5,41.28 C73.1827618,41.5955444 73.9630507,41.6263115 74.6685382,41.3655063 C75.3740257,41.104701 75.9466695,40.5737806 76.26,39.89 L86.36,20.53 C87.1311125,19.1885316 86.6864661,17.4766428 85.36,16.68 Z M74.28,37 C73.7189579,38.2002471 72.297068,38.7262126 71.09,38.18 L44.45,24.28 C43.3125763,23.6073416 42.9289502,22.1442094 43.59,21 L52.15,4.6 C52.4154936,4.01956718 52.9012584,3.56879769 53.4998861,3.34736171 C54.0985139,3.12592572 54.7606901,3.15206505 55.34,3.42 L82,17.31 C83.138704,17.9865286 83.5219785,19.4527763 82.86,20.6 L74.28,37 Z" id="Shape" fill="#36C5F3"></path>
            <rect id="Rectangle" fill="#DA4643" transform="translate(34.122666, 17.732258) rotate(-22.950000) translate(-34.122666, -17.732258) " x="17.7426657" y="5.47225766" width="32.76" height="24.52"></rect>
            <rect id="Rectangle" fill="#FFFFFF" transform="translate(33.968697, 17.975067) rotate(-22.960000) translate(-33.968697, -17.975067) " x="19.0886972" y="8.96506714" width="29.76" height="18.02"></rect>
            <polygon id="Path" fill="#FFFFFF" points="41.64 2.31 42.24 2.59 42.45 2 42.8 1.85 42.49 2.75 43.4 3.19 43 3.31 42.41 3 42.18 3.67 41.84 3.82 42.14 2.82 41.29 2.41"></polygon>
            <path d="M37.88,3.51 L38.62,5.27 L40.7,4.39 L40,2.63 L37.88,3.51 Z M40.45,4.27 L38.71,5 L38.26,3.94 L40,3.2 L40.45,4.27 Z" id="Shape" fill="#FFFFFF"></path>
            <polygon id="Path" fill="#FFFFFF" points="51.53 22.37 26 33.18 25.78 32.66 51.31 21.84"></polygon>
            <polygon id="Path" fill="#FFFFFF" points="44.49 25.76 43.9 26.01 43.35 24.72 43.95 24.47"></polygon>
            <polygon id="Path" fill="#FFFFFF" points="25.1 33.99 24.73 34.15 24.2 32.9 24.57 32.74"></polygon>
            <polygon id="Path" fill="#FFFFFF" points="25.8 33.69 25.43 33.85 24.9 32.6 25.27 32.44"></polygon>
            <path d="M41.19,14.74 C42.841769,18.6459136 41.0150432,23.151359 37.1095335,24.8040827 C33.2040238,26.4568063 28.698132,24.6311818 27.0444538,20.7260762 C25.3907756,16.8209705 27.2152987,12.3146327 31.12,10.66 C32.9960384,9.86213056 35.1125339,9.84395966 37.0019947,10.6095009 C38.8914555,11.3750421 40.3984093,12.8613037 41.19,14.74 Z" id="Path" fill="#DA4643"></path>
            <polygon id="Path" fill="#36C5F3" points="30.25 14.18 34.03 23.08 38.36 16"></polygon>
            <path d="M12.06,64.79 C12.61,67.15 13.06,67.1 13.06,64.68 L13.06,33.18 C13.06,30.76 11.41,29.85 9.37,31.18 L8.53,31.71 C6.40722215,33.1984475 5.3544244,35.7932613 5.84,38.34 L12.06,64.79 Z" id="Path" fill="#F39225"></path>
            <path d="M0,82.69 C1.46768764e-16,83.8884579 0.971542093,84.86 2.17,84.86 L31.17,84.86 L31.17,80.52 L2.17,80.52 C1.59448022,80.52 1.04253223,80.7486243 0.635578285,81.1555783 C0.228624344,81.5625322 7.0480846e-17,82.1144802 0,82.69 Z" id="Path" fill="#FFFFFF"></path>
            <path d="M92.29,80.52 L63.29,80.52 L63.29,84.86 L92.29,84.86 C93.4884579,84.86 94.46,83.8884579 94.46,82.69 C94.46,81.4915421 93.4884579,80.52 92.29,80.52 Z" id="Path" fill="#FFFFFF"></path>
            <path d="M49.11,69.06 L72.7,69.06 C75.13,69.06 78.23,68.2 78.89,66.63 C79.2755057,65.6748124 79.5766552,64.6877113 79.79,63.68 C80.38,59.97 81.79,43.32 82.5,35.28 C82.7,32.87 83.64,28.49 81.77,27.04 C80.5701669,26.251055 79.1413707,25.8850579 77.71,26 L41.71,26 C39.29,26 37.32,25.39 37.33,24.65 C37.34,23.91 37.33,23.31 37.33,23.31 C37.33,23.31 37.17,17.89 32.01,17.89 L20.7,17.89 C19.3361412,17.9069492 18.0384058,18.4803382 17.1075464,19.4772829 C16.176687,20.4742277 15.6935127,21.8081822 15.77,23.17 L15.77,31.39 L15.85,63.48 C15.85,63.48 16.15,69.08 18.85,69.08 L45.36,69.08 L45.36,78.17 L32.73,78.17 L32.73,87.25 L61.73,87.25 L61.73,78.15 L49.11,78.15 L49.11,69.06 Z" id="Path" fill="#F39225"></path>
        </g>
    </g>
</svg>